%TF.GenerationSoftware,KiCad,Pcbnew,(6.0.1)*%
%TF.CreationDate,2022-08-30T01:47:07+05:30*%
%TF.ProjectId,STM32,53544d33-322e-46b6-9963-61645f706362,rev?*%
%TF.SameCoordinates,Original*%
%TF.FileFunction,Legend,Top*%
%TF.FilePolarity,Positive*%
%FSLAX46Y46*%
G04 Gerber Fmt 4.6, Leading zero omitted, Abs format (unit mm)*
G04 Created by KiCad (PCBNEW (6.0.1)) date 2022-08-30 01:47:07*
%MOMM*%
%LPD*%
G01*
G04 APERTURE LIST*
%ADD10C,0.150000*%
%ADD11C,0.200000*%
%ADD12C,0.120000*%
G04 APERTURE END LIST*
D10*
X150042857Y-95928571D02*
X150185714Y-95976190D01*
X150233333Y-96023809D01*
X150280952Y-96119047D01*
X150280952Y-96261904D01*
X150233333Y-96357142D01*
X150185714Y-96404761D01*
X150090476Y-96452380D01*
X149709523Y-96452380D01*
X149709523Y-95452380D01*
X150042857Y-95452380D01*
X150138095Y-95500000D01*
X150185714Y-95547619D01*
X150233333Y-95642857D01*
X150233333Y-95738095D01*
X150185714Y-95833333D01*
X150138095Y-95880952D01*
X150042857Y-95928571D01*
X149709523Y-95928571D01*
X150900000Y-95452380D02*
X151090476Y-95452380D01*
X151185714Y-95500000D01*
X151280952Y-95595238D01*
X151328571Y-95785714D01*
X151328571Y-96119047D01*
X151280952Y-96309523D01*
X151185714Y-96404761D01*
X151090476Y-96452380D01*
X150900000Y-96452380D01*
X150804761Y-96404761D01*
X150709523Y-96309523D01*
X150661904Y-96119047D01*
X150661904Y-95785714D01*
X150709523Y-95595238D01*
X150804761Y-95500000D01*
X150900000Y-95452380D01*
X151947619Y-95452380D02*
X152138095Y-95452380D01*
X152233333Y-95500000D01*
X152328571Y-95595238D01*
X152376190Y-95785714D01*
X152376190Y-96119047D01*
X152328571Y-96309523D01*
X152233333Y-96404761D01*
X152138095Y-96452380D01*
X151947619Y-96452380D01*
X151852380Y-96404761D01*
X151757142Y-96309523D01*
X151709523Y-96119047D01*
X151709523Y-95785714D01*
X151757142Y-95595238D01*
X151852380Y-95500000D01*
X151947619Y-95452380D01*
X152661904Y-95452380D02*
X153233333Y-95452380D01*
X152947619Y-96452380D02*
X152947619Y-95452380D01*
X161604761Y-93452380D02*
X161604761Y-94261904D01*
X161652380Y-94357142D01*
X161700000Y-94404761D01*
X161795238Y-94452380D01*
X161985714Y-94452380D01*
X162080952Y-94404761D01*
X162128571Y-94357142D01*
X162176190Y-94261904D01*
X162176190Y-93452380D01*
X162604761Y-94166666D02*
X163080952Y-94166666D01*
X162509523Y-94452380D02*
X162842857Y-93452380D01*
X163176190Y-94452380D01*
X164080952Y-94452380D02*
X163747619Y-93976190D01*
X163509523Y-94452380D02*
X163509523Y-93452380D01*
X163890476Y-93452380D01*
X163985714Y-93500000D01*
X164033333Y-93547619D01*
X164080952Y-93642857D01*
X164080952Y-93785714D01*
X164033333Y-93880952D01*
X163985714Y-93928571D01*
X163890476Y-93976190D01*
X163509523Y-93976190D01*
X164366666Y-93452380D02*
X164938095Y-93452380D01*
X164652380Y-94452380D02*
X164652380Y-93452380D01*
D11*
X172903571Y-94705952D02*
X173082142Y-94765476D01*
X173379761Y-94765476D01*
X173498809Y-94705952D01*
X173558333Y-94646428D01*
X173617857Y-94527380D01*
X173617857Y-94408333D01*
X173558333Y-94289285D01*
X173498809Y-94229761D01*
X173379761Y-94170238D01*
X173141666Y-94110714D01*
X173022619Y-94051190D01*
X172963095Y-93991666D01*
X172903571Y-93872619D01*
X172903571Y-93753571D01*
X172963095Y-93634523D01*
X173022619Y-93575000D01*
X173141666Y-93515476D01*
X173439285Y-93515476D01*
X173617857Y-93575000D01*
X174034523Y-93515476D02*
X174332142Y-94765476D01*
X174570238Y-93872619D01*
X174808333Y-94765476D01*
X175105952Y-93515476D01*
X175582142Y-94765476D02*
X175582142Y-93515476D01*
X175879761Y-93515476D01*
X176058333Y-93575000D01*
X176177380Y-93694047D01*
X176236904Y-93813095D01*
X176296428Y-94051190D01*
X176296428Y-94229761D01*
X176236904Y-94467857D01*
X176177380Y-94586904D01*
X176058333Y-94705952D01*
X175879761Y-94765476D01*
X175582142Y-94765476D01*
D10*
%TO.C,U1*%
X181738095Y-118102380D02*
X181738095Y-118911904D01*
X181785714Y-119007142D01*
X181833333Y-119054761D01*
X181928571Y-119102380D01*
X182119047Y-119102380D01*
X182214285Y-119054761D01*
X182261904Y-119007142D01*
X182309523Y-118911904D01*
X182309523Y-118102380D01*
X183309523Y-119102380D02*
X182738095Y-119102380D01*
X183023809Y-119102380D02*
X183023809Y-118102380D01*
X182928571Y-118245238D01*
X182833333Y-118340476D01*
X182738095Y-118388095D01*
%TO.C,SW1*%
X149866666Y-110404761D02*
X150009523Y-110452380D01*
X150247619Y-110452380D01*
X150342857Y-110404761D01*
X150390476Y-110357142D01*
X150438095Y-110261904D01*
X150438095Y-110166666D01*
X150390476Y-110071428D01*
X150342857Y-110023809D01*
X150247619Y-109976190D01*
X150057142Y-109928571D01*
X149961904Y-109880952D01*
X149914285Y-109833333D01*
X149866666Y-109738095D01*
X149866666Y-109642857D01*
X149914285Y-109547619D01*
X149961904Y-109500000D01*
X150057142Y-109452380D01*
X150295238Y-109452380D01*
X150438095Y-109500000D01*
X150771428Y-109452380D02*
X151009523Y-110452380D01*
X151200000Y-109738095D01*
X151390476Y-110452380D01*
X151628571Y-109452380D01*
X152533333Y-110452380D02*
X151961904Y-110452380D01*
X152247619Y-110452380D02*
X152247619Y-109452380D01*
X152152380Y-109595238D01*
X152057142Y-109690476D01*
X151961904Y-109738095D01*
%TO.C,H4*%
X188238095Y-116752380D02*
X188238095Y-115752380D01*
X188238095Y-116228571D02*
X188809523Y-116228571D01*
X188809523Y-116752380D02*
X188809523Y-115752380D01*
X189714285Y-116085714D02*
X189714285Y-116752380D01*
X189476190Y-115704761D02*
X189238095Y-116419047D01*
X189857142Y-116419047D01*
%TO.C,H3*%
X151238095Y-116752380D02*
X151238095Y-115752380D01*
X151238095Y-116228571D02*
X151809523Y-116228571D01*
X151809523Y-116752380D02*
X151809523Y-115752380D01*
X152190476Y-115752380D02*
X152809523Y-115752380D01*
X152476190Y-116133333D01*
X152619047Y-116133333D01*
X152714285Y-116180952D01*
X152761904Y-116228571D01*
X152809523Y-116323809D01*
X152809523Y-116561904D01*
X152761904Y-116657142D01*
X152714285Y-116704761D01*
X152619047Y-116752380D01*
X152333333Y-116752380D01*
X152238095Y-116704761D01*
X152190476Y-116657142D01*
%TO.C,H2*%
X154638095Y-93852380D02*
X154638095Y-92852380D01*
X154638095Y-93328571D02*
X155209523Y-93328571D01*
X155209523Y-93852380D02*
X155209523Y-92852380D01*
X155638095Y-92947619D02*
X155685714Y-92900000D01*
X155780952Y-92852380D01*
X156019047Y-92852380D01*
X156114285Y-92900000D01*
X156161904Y-92947619D01*
X156209523Y-93042857D01*
X156209523Y-93138095D01*
X156161904Y-93280952D01*
X155590476Y-93852380D01*
X156209523Y-93852380D01*
%TO.C,H1*%
X183838095Y-93852380D02*
X183838095Y-92852380D01*
X183838095Y-93328571D02*
X184409523Y-93328571D01*
X184409523Y-93852380D02*
X184409523Y-92852380D01*
X185409523Y-93852380D02*
X184838095Y-93852380D01*
X185123809Y-93852380D02*
X185123809Y-92852380D01*
X185028571Y-92995238D01*
X184933333Y-93090476D01*
X184838095Y-93138095D01*
%TO.C,Y1*%
X154123809Y-105176190D02*
X154123809Y-105652380D01*
X153790476Y-104652380D02*
X154123809Y-105176190D01*
X154457142Y-104652380D01*
X155314285Y-105652380D02*
X154742857Y-105652380D01*
X155028571Y-105652380D02*
X155028571Y-104652380D01*
X154933333Y-104795238D01*
X154838095Y-104890476D01*
X154742857Y-104938095D01*
%TO.C,U2*%
X168738095Y-99452380D02*
X168738095Y-100261904D01*
X168785714Y-100357142D01*
X168833333Y-100404761D01*
X168928571Y-100452380D01*
X169119047Y-100452380D01*
X169214285Y-100404761D01*
X169261904Y-100357142D01*
X169309523Y-100261904D01*
X169309523Y-99452380D01*
X169738095Y-99547619D02*
X169785714Y-99500000D01*
X169880952Y-99452380D01*
X170119047Y-99452380D01*
X170214285Y-99500000D01*
X170261904Y-99547619D01*
X170309523Y-99642857D01*
X170309523Y-99738095D01*
X170261904Y-99880952D01*
X169690476Y-100452380D01*
X170309523Y-100452380D01*
%TO.C,R5*%
X182382380Y-103841666D02*
X181906190Y-104175000D01*
X182382380Y-104413095D02*
X181382380Y-104413095D01*
X181382380Y-104032142D01*
X181430000Y-103936904D01*
X181477619Y-103889285D01*
X181572857Y-103841666D01*
X181715714Y-103841666D01*
X181810952Y-103889285D01*
X181858571Y-103936904D01*
X181906190Y-104032142D01*
X181906190Y-104413095D01*
X181382380Y-102936904D02*
X181382380Y-103413095D01*
X181858571Y-103460714D01*
X181810952Y-103413095D01*
X181763333Y-103317857D01*
X181763333Y-103079761D01*
X181810952Y-102984523D01*
X181858571Y-102936904D01*
X181953809Y-102889285D01*
X182191904Y-102889285D01*
X182287142Y-102936904D01*
X182334761Y-102984523D01*
X182382380Y-103079761D01*
X182382380Y-103317857D01*
X182334761Y-103413095D01*
X182287142Y-103460714D01*
%TO.C,R4*%
X156433333Y-100052380D02*
X156100000Y-99576190D01*
X155861904Y-100052380D02*
X155861904Y-99052380D01*
X156242857Y-99052380D01*
X156338095Y-99100000D01*
X156385714Y-99147619D01*
X156433333Y-99242857D01*
X156433333Y-99385714D01*
X156385714Y-99480952D01*
X156338095Y-99528571D01*
X156242857Y-99576190D01*
X155861904Y-99576190D01*
X157290476Y-99385714D02*
X157290476Y-100052380D01*
X157052380Y-99004761D02*
X156814285Y-99719047D01*
X157433333Y-99719047D01*
%TO.C,R3*%
X170833333Y-116952380D02*
X170500000Y-116476190D01*
X170261904Y-116952380D02*
X170261904Y-115952380D01*
X170642857Y-115952380D01*
X170738095Y-116000000D01*
X170785714Y-116047619D01*
X170833333Y-116142857D01*
X170833333Y-116285714D01*
X170785714Y-116380952D01*
X170738095Y-116428571D01*
X170642857Y-116476190D01*
X170261904Y-116476190D01*
X171166666Y-115952380D02*
X171785714Y-115952380D01*
X171452380Y-116333333D01*
X171595238Y-116333333D01*
X171690476Y-116380952D01*
X171738095Y-116428571D01*
X171785714Y-116523809D01*
X171785714Y-116761904D01*
X171738095Y-116857142D01*
X171690476Y-116904761D01*
X171595238Y-116952380D01*
X171309523Y-116952380D01*
X171214285Y-116904761D01*
X171166666Y-116857142D01*
%TO.C,R2*%
X161833333Y-116952380D02*
X161500000Y-116476190D01*
X161261904Y-116952380D02*
X161261904Y-115952380D01*
X161642857Y-115952380D01*
X161738095Y-116000000D01*
X161785714Y-116047619D01*
X161833333Y-116142857D01*
X161833333Y-116285714D01*
X161785714Y-116380952D01*
X161738095Y-116428571D01*
X161642857Y-116476190D01*
X161261904Y-116476190D01*
X162214285Y-116047619D02*
X162261904Y-116000000D01*
X162357142Y-115952380D01*
X162595238Y-115952380D01*
X162690476Y-116000000D01*
X162738095Y-116047619D01*
X162785714Y-116142857D01*
X162785714Y-116238095D01*
X162738095Y-116380952D01*
X162166666Y-116952380D01*
X162785714Y-116952380D01*
%TO.C,R1*%
X183433333Y-109252380D02*
X183100000Y-108776190D01*
X182861904Y-109252380D02*
X182861904Y-108252380D01*
X183242857Y-108252380D01*
X183338095Y-108300000D01*
X183385714Y-108347619D01*
X183433333Y-108442857D01*
X183433333Y-108585714D01*
X183385714Y-108680952D01*
X183338095Y-108728571D01*
X183242857Y-108776190D01*
X182861904Y-108776190D01*
X184385714Y-109252380D02*
X183814285Y-109252380D01*
X184100000Y-109252380D02*
X184100000Y-108252380D01*
X184004761Y-108395238D01*
X183909523Y-108490476D01*
X183814285Y-108538095D01*
%TO.C,J4*%
X183952380Y-104838333D02*
X184666666Y-104838333D01*
X184809523Y-104885952D01*
X184904761Y-104981190D01*
X184952380Y-105124047D01*
X184952380Y-105219285D01*
X184285714Y-103933571D02*
X184952380Y-103933571D01*
X183904761Y-104171666D02*
X184619047Y-104409761D01*
X184619047Y-103790714D01*
%TO.C,J3*%
X181166666Y-90452380D02*
X181166666Y-91166666D01*
X181119047Y-91309523D01*
X181023809Y-91404761D01*
X180880952Y-91452380D01*
X180785714Y-91452380D01*
X181547619Y-90452380D02*
X182166666Y-90452380D01*
X181833333Y-90833333D01*
X181976190Y-90833333D01*
X182071428Y-90880952D01*
X182119047Y-90928571D01*
X182166666Y-91023809D01*
X182166666Y-91261904D01*
X182119047Y-91357142D01*
X182071428Y-91404761D01*
X181976190Y-91452380D01*
X181690476Y-91452380D01*
X181595238Y-91404761D01*
X181547619Y-91357142D01*
%TO.C,J2*%
X160466666Y-119952380D02*
X160466666Y-120666666D01*
X160419047Y-120809523D01*
X160323809Y-120904761D01*
X160180952Y-120952380D01*
X160085714Y-120952380D01*
X160895238Y-120047619D02*
X160942857Y-120000000D01*
X161038095Y-119952380D01*
X161276190Y-119952380D01*
X161371428Y-120000000D01*
X161419047Y-120047619D01*
X161466666Y-120142857D01*
X161466666Y-120238095D01*
X161419047Y-120380952D01*
X160847619Y-120952380D01*
X161466666Y-120952380D01*
%TO.C,J1*%
X156166666Y-90452380D02*
X156166666Y-91166666D01*
X156119047Y-91309523D01*
X156023809Y-91404761D01*
X155880952Y-91452380D01*
X155785714Y-91452380D01*
X157166666Y-91452380D02*
X156595238Y-91452380D01*
X156880952Y-91452380D02*
X156880952Y-90452380D01*
X156785714Y-90595238D01*
X156690476Y-90690476D01*
X156595238Y-90738095D01*
%TO.C,FB1*%
X163166666Y-113728571D02*
X162833333Y-113728571D01*
X162833333Y-114252380D02*
X162833333Y-113252380D01*
X163309523Y-113252380D01*
X164023809Y-113728571D02*
X164166666Y-113776190D01*
X164214285Y-113823809D01*
X164261904Y-113919047D01*
X164261904Y-114061904D01*
X164214285Y-114157142D01*
X164166666Y-114204761D01*
X164071428Y-114252380D01*
X163690476Y-114252380D01*
X163690476Y-113252380D01*
X164023809Y-113252380D01*
X164119047Y-113300000D01*
X164166666Y-113347619D01*
X164214285Y-113442857D01*
X164214285Y-113538095D01*
X164166666Y-113633333D01*
X164119047Y-113680952D01*
X164023809Y-113728571D01*
X163690476Y-113728571D01*
X165214285Y-114252380D02*
X164642857Y-114252380D01*
X164928571Y-114252380D02*
X164928571Y-113252380D01*
X164833333Y-113395238D01*
X164738095Y-113490476D01*
X164642857Y-113538095D01*
%TO.C,D1*%
X185761904Y-113164880D02*
X185761904Y-112164880D01*
X186000000Y-112164880D01*
X186142857Y-112212500D01*
X186238095Y-112307738D01*
X186285714Y-112402976D01*
X186333333Y-112593452D01*
X186333333Y-112736309D01*
X186285714Y-112926785D01*
X186238095Y-113022023D01*
X186142857Y-113117261D01*
X186000000Y-113164880D01*
X185761904Y-113164880D01*
X187285714Y-113164880D02*
X186714285Y-113164880D01*
X187000000Y-113164880D02*
X187000000Y-112164880D01*
X186904761Y-112307738D01*
X186809523Y-112402976D01*
X186714285Y-112450595D01*
%TO.C,C13*%
X158357142Y-112557142D02*
X158309523Y-112604761D01*
X158166666Y-112652380D01*
X158071428Y-112652380D01*
X157928571Y-112604761D01*
X157833333Y-112509523D01*
X157785714Y-112414285D01*
X157738095Y-112223809D01*
X157738095Y-112080952D01*
X157785714Y-111890476D01*
X157833333Y-111795238D01*
X157928571Y-111700000D01*
X158071428Y-111652380D01*
X158166666Y-111652380D01*
X158309523Y-111700000D01*
X158357142Y-111747619D01*
X159309523Y-112652380D02*
X158738095Y-112652380D01*
X159023809Y-112652380D02*
X159023809Y-111652380D01*
X158928571Y-111795238D01*
X158833333Y-111890476D01*
X158738095Y-111938095D01*
X159642857Y-111652380D02*
X160261904Y-111652380D01*
X159928571Y-112033333D01*
X160071428Y-112033333D01*
X160166666Y-112080952D01*
X160214285Y-112128571D01*
X160261904Y-112223809D01*
X160261904Y-112461904D01*
X160214285Y-112557142D01*
X160166666Y-112604761D01*
X160071428Y-112652380D01*
X159785714Y-112652380D01*
X159690476Y-112604761D01*
X159642857Y-112557142D01*
%TO.C,C12*%
X158257142Y-111057142D02*
X158209523Y-111104761D01*
X158066666Y-111152380D01*
X157971428Y-111152380D01*
X157828571Y-111104761D01*
X157733333Y-111009523D01*
X157685714Y-110914285D01*
X157638095Y-110723809D01*
X157638095Y-110580952D01*
X157685714Y-110390476D01*
X157733333Y-110295238D01*
X157828571Y-110200000D01*
X157971428Y-110152380D01*
X158066666Y-110152380D01*
X158209523Y-110200000D01*
X158257142Y-110247619D01*
X159209523Y-111152380D02*
X158638095Y-111152380D01*
X158923809Y-111152380D02*
X158923809Y-110152380D01*
X158828571Y-110295238D01*
X158733333Y-110390476D01*
X158638095Y-110438095D01*
X159590476Y-110247619D02*
X159638095Y-110200000D01*
X159733333Y-110152380D01*
X159971428Y-110152380D01*
X160066666Y-110200000D01*
X160114285Y-110247619D01*
X160161904Y-110342857D01*
X160161904Y-110438095D01*
X160114285Y-110580952D01*
X159542857Y-111152380D01*
X160161904Y-111152380D01*
%TO.C,C11*%
X160857142Y-109357142D02*
X160809523Y-109404761D01*
X160666666Y-109452380D01*
X160571428Y-109452380D01*
X160428571Y-109404761D01*
X160333333Y-109309523D01*
X160285714Y-109214285D01*
X160238095Y-109023809D01*
X160238095Y-108880952D01*
X160285714Y-108690476D01*
X160333333Y-108595238D01*
X160428571Y-108500000D01*
X160571428Y-108452380D01*
X160666666Y-108452380D01*
X160809523Y-108500000D01*
X160857142Y-108547619D01*
X161809523Y-109452380D02*
X161238095Y-109452380D01*
X161523809Y-109452380D02*
X161523809Y-108452380D01*
X161428571Y-108595238D01*
X161333333Y-108690476D01*
X161238095Y-108738095D01*
X162761904Y-109452380D02*
X162190476Y-109452380D01*
X162476190Y-109452380D02*
X162476190Y-108452380D01*
X162380952Y-108595238D01*
X162285714Y-108690476D01*
X162190476Y-108738095D01*
%TO.C,C10*%
X165357142Y-95927142D02*
X165309523Y-95974761D01*
X165166666Y-96022380D01*
X165071428Y-96022380D01*
X164928571Y-95974761D01*
X164833333Y-95879523D01*
X164785714Y-95784285D01*
X164738095Y-95593809D01*
X164738095Y-95450952D01*
X164785714Y-95260476D01*
X164833333Y-95165238D01*
X164928571Y-95070000D01*
X165071428Y-95022380D01*
X165166666Y-95022380D01*
X165309523Y-95070000D01*
X165357142Y-95117619D01*
X166309523Y-96022380D02*
X165738095Y-96022380D01*
X166023809Y-96022380D02*
X166023809Y-95022380D01*
X165928571Y-95165238D01*
X165833333Y-95260476D01*
X165738095Y-95308095D01*
X166928571Y-95022380D02*
X167023809Y-95022380D01*
X167119047Y-95070000D01*
X167166666Y-95117619D01*
X167214285Y-95212857D01*
X167261904Y-95403333D01*
X167261904Y-95641428D01*
X167214285Y-95831904D01*
X167166666Y-95927142D01*
X167119047Y-95974761D01*
X167023809Y-96022380D01*
X166928571Y-96022380D01*
X166833333Y-95974761D01*
X166785714Y-95927142D01*
X166738095Y-95831904D01*
X166690476Y-95641428D01*
X166690476Y-95403333D01*
X166738095Y-95212857D01*
X166785714Y-95117619D01*
X166833333Y-95070000D01*
X166928571Y-95022380D01*
%TO.C,C9*%
X160333333Y-100857142D02*
X160285714Y-100904761D01*
X160142857Y-100952380D01*
X160047619Y-100952380D01*
X159904761Y-100904761D01*
X159809523Y-100809523D01*
X159761904Y-100714285D01*
X159714285Y-100523809D01*
X159714285Y-100380952D01*
X159761904Y-100190476D01*
X159809523Y-100095238D01*
X159904761Y-100000000D01*
X160047619Y-99952380D01*
X160142857Y-99952380D01*
X160285714Y-100000000D01*
X160333333Y-100047619D01*
X160809523Y-100952380D02*
X161000000Y-100952380D01*
X161095238Y-100904761D01*
X161142857Y-100857142D01*
X161238095Y-100714285D01*
X161285714Y-100523809D01*
X161285714Y-100142857D01*
X161238095Y-100047619D01*
X161190476Y-100000000D01*
X161095238Y-99952380D01*
X160904761Y-99952380D01*
X160809523Y-100000000D01*
X160761904Y-100047619D01*
X160714285Y-100142857D01*
X160714285Y-100380952D01*
X160761904Y-100476190D01*
X160809523Y-100523809D01*
X160904761Y-100571428D01*
X161095238Y-100571428D01*
X161190476Y-100523809D01*
X161238095Y-100476190D01*
X161285714Y-100380952D01*
%TO.C,C8*%
X159033333Y-108357142D02*
X158985714Y-108404761D01*
X158842857Y-108452380D01*
X158747619Y-108452380D01*
X158604761Y-108404761D01*
X158509523Y-108309523D01*
X158461904Y-108214285D01*
X158414285Y-108023809D01*
X158414285Y-107880952D01*
X158461904Y-107690476D01*
X158509523Y-107595238D01*
X158604761Y-107500000D01*
X158747619Y-107452380D01*
X158842857Y-107452380D01*
X158985714Y-107500000D01*
X159033333Y-107547619D01*
X159604761Y-107880952D02*
X159509523Y-107833333D01*
X159461904Y-107785714D01*
X159414285Y-107690476D01*
X159414285Y-107642857D01*
X159461904Y-107547619D01*
X159509523Y-107500000D01*
X159604761Y-107452380D01*
X159795238Y-107452380D01*
X159890476Y-107500000D01*
X159938095Y-107547619D01*
X159985714Y-107642857D01*
X159985714Y-107690476D01*
X159938095Y-107785714D01*
X159890476Y-107833333D01*
X159795238Y-107880952D01*
X159604761Y-107880952D01*
X159509523Y-107928571D01*
X159461904Y-107976190D01*
X159414285Y-108071428D01*
X159414285Y-108261904D01*
X159461904Y-108357142D01*
X159509523Y-108404761D01*
X159604761Y-108452380D01*
X159795238Y-108452380D01*
X159890476Y-108404761D01*
X159938095Y-108357142D01*
X159985714Y-108261904D01*
X159985714Y-108071428D01*
X159938095Y-107976190D01*
X159890476Y-107928571D01*
X159795238Y-107880952D01*
%TO.C,C7*%
X176517142Y-103666666D02*
X176564761Y-103714285D01*
X176612380Y-103857142D01*
X176612380Y-103952380D01*
X176564761Y-104095238D01*
X176469523Y-104190476D01*
X176374285Y-104238095D01*
X176183809Y-104285714D01*
X176040952Y-104285714D01*
X175850476Y-104238095D01*
X175755238Y-104190476D01*
X175660000Y-104095238D01*
X175612380Y-103952380D01*
X175612380Y-103857142D01*
X175660000Y-103714285D01*
X175707619Y-103666666D01*
X175612380Y-103333333D02*
X175612380Y-102666666D01*
X176612380Y-103095238D01*
%TO.C,C6*%
X159833333Y-102557142D02*
X159785714Y-102604761D01*
X159642857Y-102652380D01*
X159547619Y-102652380D01*
X159404761Y-102604761D01*
X159309523Y-102509523D01*
X159261904Y-102414285D01*
X159214285Y-102223809D01*
X159214285Y-102080952D01*
X159261904Y-101890476D01*
X159309523Y-101795238D01*
X159404761Y-101700000D01*
X159547619Y-101652380D01*
X159642857Y-101652380D01*
X159785714Y-101700000D01*
X159833333Y-101747619D01*
X160690476Y-101652380D02*
X160500000Y-101652380D01*
X160404761Y-101700000D01*
X160357142Y-101747619D01*
X160261904Y-101890476D01*
X160214285Y-102080952D01*
X160214285Y-102461904D01*
X160261904Y-102557142D01*
X160309523Y-102604761D01*
X160404761Y-102652380D01*
X160595238Y-102652380D01*
X160690476Y-102604761D01*
X160738095Y-102557142D01*
X160785714Y-102461904D01*
X160785714Y-102223809D01*
X160738095Y-102128571D01*
X160690476Y-102080952D01*
X160595238Y-102033333D01*
X160404761Y-102033333D01*
X160309523Y-102080952D01*
X160261904Y-102128571D01*
X160214285Y-102223809D01*
%TO.C,C5*%
X163833333Y-99857142D02*
X163785714Y-99904761D01*
X163642857Y-99952380D01*
X163547619Y-99952380D01*
X163404761Y-99904761D01*
X163309523Y-99809523D01*
X163261904Y-99714285D01*
X163214285Y-99523809D01*
X163214285Y-99380952D01*
X163261904Y-99190476D01*
X163309523Y-99095238D01*
X163404761Y-99000000D01*
X163547619Y-98952380D01*
X163642857Y-98952380D01*
X163785714Y-99000000D01*
X163833333Y-99047619D01*
X164738095Y-98952380D02*
X164261904Y-98952380D01*
X164214285Y-99428571D01*
X164261904Y-99380952D01*
X164357142Y-99333333D01*
X164595238Y-99333333D01*
X164690476Y-99380952D01*
X164738095Y-99428571D01*
X164785714Y-99523809D01*
X164785714Y-99761904D01*
X164738095Y-99857142D01*
X164690476Y-99904761D01*
X164595238Y-99952380D01*
X164357142Y-99952380D01*
X164261904Y-99904761D01*
X164214285Y-99857142D01*
%TO.C,C4*%
X166333333Y-114357142D02*
X166285714Y-114404761D01*
X166142857Y-114452380D01*
X166047619Y-114452380D01*
X165904761Y-114404761D01*
X165809523Y-114309523D01*
X165761904Y-114214285D01*
X165714285Y-114023809D01*
X165714285Y-113880952D01*
X165761904Y-113690476D01*
X165809523Y-113595238D01*
X165904761Y-113500000D01*
X166047619Y-113452380D01*
X166142857Y-113452380D01*
X166285714Y-113500000D01*
X166333333Y-113547619D01*
X167190476Y-113785714D02*
X167190476Y-114452380D01*
X166952380Y-113404761D02*
X166714285Y-114119047D01*
X167333333Y-114119047D01*
%TO.C,C3*%
X173333333Y-114357142D02*
X173285714Y-114404761D01*
X173142857Y-114452380D01*
X173047619Y-114452380D01*
X172904761Y-114404761D01*
X172809523Y-114309523D01*
X172761904Y-114214285D01*
X172714285Y-114023809D01*
X172714285Y-113880952D01*
X172761904Y-113690476D01*
X172809523Y-113595238D01*
X172904761Y-113500000D01*
X173047619Y-113452380D01*
X173142857Y-113452380D01*
X173285714Y-113500000D01*
X173333333Y-113547619D01*
X173666666Y-113452380D02*
X174285714Y-113452380D01*
X173952380Y-113833333D01*
X174095238Y-113833333D01*
X174190476Y-113880952D01*
X174238095Y-113928571D01*
X174285714Y-114023809D01*
X174285714Y-114261904D01*
X174238095Y-114357142D01*
X174190476Y-114404761D01*
X174095238Y-114452380D01*
X173809523Y-114452380D01*
X173714285Y-114404761D01*
X173666666Y-114357142D01*
%TO.C,C2*%
X182833333Y-112507142D02*
X182785714Y-112554761D01*
X182642857Y-112602380D01*
X182547619Y-112602380D01*
X182404761Y-112554761D01*
X182309523Y-112459523D01*
X182261904Y-112364285D01*
X182214285Y-112173809D01*
X182214285Y-112030952D01*
X182261904Y-111840476D01*
X182309523Y-111745238D01*
X182404761Y-111650000D01*
X182547619Y-111602380D01*
X182642857Y-111602380D01*
X182785714Y-111650000D01*
X182833333Y-111697619D01*
X183214285Y-111697619D02*
X183261904Y-111650000D01*
X183357142Y-111602380D01*
X183595238Y-111602380D01*
X183690476Y-111650000D01*
X183738095Y-111697619D01*
X183785714Y-111792857D01*
X183785714Y-111888095D01*
X183738095Y-112030952D01*
X183166666Y-112602380D01*
X183785714Y-112602380D01*
%TO.C,C1*%
X178083333Y-108627142D02*
X178035714Y-108674761D01*
X177892857Y-108722380D01*
X177797619Y-108722380D01*
X177654761Y-108674761D01*
X177559523Y-108579523D01*
X177511904Y-108484285D01*
X177464285Y-108293809D01*
X177464285Y-108150952D01*
X177511904Y-107960476D01*
X177559523Y-107865238D01*
X177654761Y-107770000D01*
X177797619Y-107722380D01*
X177892857Y-107722380D01*
X178035714Y-107770000D01*
X178083333Y-107817619D01*
X179035714Y-108722380D02*
X178464285Y-108722380D01*
X178750000Y-108722380D02*
X178750000Y-107722380D01*
X178654761Y-107865238D01*
X178559523Y-107960476D01*
X178464285Y-108008095D01*
D12*
%TO.C,U1*%
X181410000Y-111550000D02*
X181410000Y-117560000D01*
X174590000Y-113800000D02*
X174590000Y-117560000D01*
X174590000Y-117560000D02*
X175850000Y-117560000D01*
X181410000Y-117560000D02*
X180150000Y-117560000D01*
%TO.C,SW1*%
X151570000Y-106650000D02*
X151570000Y-107350000D01*
X150570000Y-98050000D02*
X149780000Y-98050000D01*
X151570000Y-105150000D02*
X151570000Y-105350000D01*
X151570000Y-98650000D02*
X151570000Y-99350000D01*
X151570000Y-100650000D02*
X151570000Y-100850000D01*
X151570000Y-102150000D02*
X151570000Y-103850000D01*
X149780000Y-107950000D02*
X150570000Y-107950000D01*
X148780000Y-98650000D02*
X148780000Y-107350000D01*
%TO.C,Y1*%
X155850000Y-103020000D02*
X155850000Y-107020000D01*
X159150000Y-103020000D02*
X155850000Y-103020000D01*
%TO.C,U2*%
X172110000Y-102390000D02*
X172110000Y-102840000D01*
X164890000Y-102840000D02*
X163600000Y-102840000D01*
X165340000Y-109610000D02*
X164890000Y-109610000D01*
X165340000Y-102390000D02*
X164890000Y-102390000D01*
X172110000Y-109610000D02*
X172110000Y-109160000D01*
X171660000Y-109610000D02*
X172110000Y-109610000D01*
X164890000Y-102390000D02*
X164890000Y-102840000D01*
X164890000Y-109610000D02*
X164890000Y-109160000D01*
X171660000Y-102390000D02*
X172110000Y-102390000D01*
%TO.C,R5*%
X179977500Y-103437742D02*
X179977500Y-103912258D01*
X181022500Y-103437742D02*
X181022500Y-103912258D01*
%TO.C,R4*%
X155122500Y-99637258D02*
X155122500Y-99162742D01*
X154077500Y-99637258D02*
X154077500Y-99162742D01*
%TO.C,R3*%
X168262742Y-117022500D02*
X168737258Y-117022500D01*
X168262742Y-115977500D02*
X168737258Y-115977500D01*
%TO.C,R2*%
X164587742Y-117022500D02*
X165062258Y-117022500D01*
X164587742Y-115977500D02*
X165062258Y-115977500D01*
%TO.C,R1*%
X184062742Y-110922500D02*
X184537258Y-110922500D01*
X184062742Y-109877500D02*
X184537258Y-109877500D01*
D10*
%TO.C,J4*%
X185600000Y-106305000D02*
X185600000Y-107305000D01*
X191300000Y-108355000D02*
X191750000Y-108355000D01*
X191150000Y-108655000D02*
X191300000Y-108655000D01*
X185175000Y-106305000D02*
X185600000Y-106305000D01*
X188750000Y-100355000D02*
X187350000Y-100355000D01*
X191300000Y-108655000D02*
X191300000Y-108355000D01*
X185175000Y-105580000D02*
X185175000Y-106305000D01*
X187350000Y-108655000D02*
X188750000Y-108655000D01*
X191750000Y-100655000D02*
X191300000Y-100655000D01*
X191300000Y-100355000D02*
X191150000Y-100355000D01*
X191300000Y-100655000D02*
X191300000Y-100355000D01*
X185600000Y-102705000D02*
X185600000Y-101705000D01*
D12*
%TO.C,J3*%
X177330000Y-92330000D02*
X169650000Y-92330000D01*
X178600000Y-89670000D02*
X179930000Y-89670000D01*
X169650000Y-89670000D02*
X169650000Y-92330000D01*
X177330000Y-89670000D02*
X177330000Y-92330000D01*
X179930000Y-89670000D02*
X179930000Y-91000000D01*
X177330000Y-89670000D02*
X169650000Y-89670000D01*
%TO.C,J2*%
X165270000Y-119170000D02*
X172950000Y-119170000D01*
X164000000Y-121830000D02*
X162670000Y-121830000D01*
X172950000Y-121830000D02*
X172950000Y-119170000D01*
X165270000Y-121830000D02*
X165270000Y-119170000D01*
X162670000Y-121830000D02*
X162670000Y-120500000D01*
X165270000Y-121830000D02*
X172950000Y-121830000D01*
%TO.C,J1*%
X165730000Y-92330000D02*
X158050000Y-92330000D01*
X167000000Y-89670000D02*
X168330000Y-89670000D01*
X158050000Y-89670000D02*
X158050000Y-92330000D01*
X165730000Y-89670000D02*
X165730000Y-92330000D01*
X168330000Y-89670000D02*
X168330000Y-91000000D01*
X165730000Y-89670000D02*
X158050000Y-89670000D01*
%TO.C,FB1*%
X163490000Y-111337221D02*
X163490000Y-111662779D01*
X164510000Y-111337221D02*
X164510000Y-111662779D01*
%TO.C,D1*%
X185765000Y-113515000D02*
X185765000Y-115800000D01*
X187235000Y-113515000D02*
X185765000Y-113515000D01*
X187235000Y-115800000D02*
X187235000Y-113515000D01*
%TO.C,C13*%
X161707836Y-111840000D02*
X161492164Y-111840000D01*
X161707836Y-112560000D02*
X161492164Y-112560000D01*
%TO.C,C12*%
X161627836Y-110440000D02*
X161412164Y-110440000D01*
X161627836Y-111160000D02*
X161412164Y-111160000D01*
%TO.C,C11*%
X162360000Y-107107836D02*
X162360000Y-106892164D01*
X161640000Y-107107836D02*
X161640000Y-106892164D01*
%TO.C,C10*%
X165859420Y-97510000D02*
X166140580Y-97510000D01*
X165859420Y-96490000D02*
X166140580Y-96490000D01*
%TO.C,C9*%
X162510000Y-102640580D02*
X162510000Y-102359420D01*
X161490000Y-102640580D02*
X161490000Y-102359420D01*
%TO.C,C8*%
X159640000Y-106107836D02*
X159640000Y-105892164D01*
X160360000Y-106107836D02*
X160360000Y-105892164D01*
%TO.C,C7*%
X174640000Y-103392164D02*
X174640000Y-103607836D01*
X175360000Y-103392164D02*
X175360000Y-103607836D01*
%TO.C,C6*%
X159640000Y-104147836D02*
X159640000Y-103932164D01*
X160360000Y-104147836D02*
X160360000Y-103932164D01*
%TO.C,C5*%
X165912164Y-99860000D02*
X166127836Y-99860000D01*
X165912164Y-99140000D02*
X166127836Y-99140000D01*
%TO.C,C4*%
X166412164Y-112860000D02*
X166627836Y-112860000D01*
X166412164Y-112140000D02*
X166627836Y-112140000D01*
%TO.C,C3*%
X172640580Y-111490000D02*
X172359420Y-111490000D01*
X172640580Y-112510000D02*
X172359420Y-112510000D01*
%TO.C,C2*%
X183735000Y-114961252D02*
X183735000Y-114438748D01*
X182265000Y-114961252D02*
X182265000Y-114438748D01*
%TO.C,C1*%
X177988748Y-110685000D02*
X178511252Y-110685000D01*
X177988748Y-109215000D02*
X178511252Y-109215000D01*
%TD*%
M02*
