%TF.GenerationSoftware,KiCad,Pcbnew,(6.0.1)*%
%TF.CreationDate,2022-08-30T01:47:07+05:30*%
%TF.ProjectId,STM32,53544d33-322e-46b6-9963-61645f706362,rev?*%
%TF.SameCoordinates,Original*%
%TF.FileFunction,Copper,L2,Bot*%
%TF.FilePolarity,Positive*%
%FSLAX46Y46*%
G04 Gerber Fmt 4.6, Leading zero omitted, Abs format (unit mm)*
G04 Created by KiCad (PCBNEW (6.0.1)) date 2022-08-30 01:47:07*
%MOMM*%
%LPD*%
G01*
G04 APERTURE LIST*
%TA.AperFunction,ComponentPad*%
%ADD10O,1.800000X1.150000*%
%TD*%
%TA.AperFunction,ComponentPad*%
%ADD11O,2.000000X1.450000*%
%TD*%
%TA.AperFunction,ComponentPad*%
%ADD12R,1.700000X1.700000*%
%TD*%
%TA.AperFunction,ComponentPad*%
%ADD13O,1.700000X1.700000*%
%TD*%
%TA.AperFunction,ViaPad*%
%ADD14C,0.700000*%
%TD*%
%TA.AperFunction,Conductor*%
%ADD15C,0.500000*%
%TD*%
G04 APERTURE END LIST*
D10*
%TO.P,J4,6,Shield*%
%TO.N,unconnected-(J4-Pad6)*%
X189950000Y-100630000D03*
X189950000Y-108380000D03*
D11*
X186150000Y-100780000D03*
X186150000Y-108230000D03*
%TD*%
D12*
%TO.P,J3,1,Pin_1*%
%TO.N,+3V3*%
X178600000Y-91000000D03*
D13*
%TO.P,J3,2,Pin_2*%
%TO.N,/SWDIO*%
X176060000Y-91000000D03*
%TO.P,J3,3,Pin_3*%
%TO.N,/SWCLK*%
X173520000Y-91000000D03*
%TO.P,J3,4,Pin_4*%
%TO.N,GND*%
X170980000Y-91000000D03*
%TD*%
D12*
%TO.P,J2,1,Pin_1*%
%TO.N,+3V3*%
X164000000Y-120500000D03*
D13*
%TO.P,J2,2,Pin_2*%
%TO.N,/I2C2_SCL*%
X166540000Y-120500000D03*
%TO.P,J2,3,Pin_3*%
%TO.N,/I2C2_SDA*%
X169080000Y-120500000D03*
%TO.P,J2,4,Pin_4*%
%TO.N,GND*%
X171620000Y-120500000D03*
%TD*%
D12*
%TO.P,J1,1,Pin_1*%
%TO.N,+3V3*%
X167000000Y-91000000D03*
D13*
%TO.P,J1,2,Pin_2*%
%TO.N,/UART1_TX*%
X164460000Y-91000000D03*
%TO.P,J1,3,Pin_3*%
%TO.N,/UART1_RX*%
X161920000Y-91000000D03*
%TO.P,J1,4,Pin_4*%
%TO.N,GND*%
X159380000Y-91000000D03*
%TD*%
D14*
%TO.N,GND*%
X184000000Y-102800000D03*
X160600000Y-113400000D03*
X160960545Y-105113198D03*
X161000000Y-107000000D03*
X152200000Y-103200000D03*
X177200000Y-104000000D03*
X158400000Y-102200000D03*
X156600000Y-108000000D03*
%TO.N,+3V3*%
X164000000Y-117800000D03*
X167800000Y-117800000D03*
X170200000Y-117800000D03*
%TO.N,GND*%
X184400000Y-113600000D03*
X180400000Y-110600000D03*
X180400000Y-109400000D03*
X180600000Y-114000000D03*
X179800000Y-114000000D03*
X186800000Y-110400000D03*
X166500000Y-103500000D03*
X168500000Y-112500000D03*
X165589440Y-106968696D03*
X170500000Y-108000000D03*
X162000000Y-100000000D03*
%TD*%
D15*
%TO.N,unconnected-(J4-Pad6)*%
X186300000Y-108380000D02*
X186150000Y-108230000D01*
X189950000Y-108380000D02*
X186300000Y-108380000D01*
X189950000Y-100630000D02*
X189950000Y-108380000D01*
X189950000Y-100630000D02*
X186300000Y-100630000D01*
X186300000Y-100630000D02*
X186150000Y-100780000D01*
%TO.N,+3V3*%
X167800000Y-117800000D02*
X164000000Y-117800000D01*
X167800000Y-117800000D02*
X170200000Y-117800000D01*
%TD*%
%TA.AperFunction,Conductor*%
%TO.N,GND*%
G36*
X187984438Y-88301884D02*
G01*
X188000000Y-88304628D01*
X188010684Y-88302744D01*
X188017679Y-88302744D01*
X188034432Y-88301691D01*
X188356589Y-88317519D01*
X188368686Y-88318710D01*
X188598962Y-88352868D01*
X188715806Y-88370200D01*
X188727742Y-88372574D01*
X189068152Y-88457843D01*
X189079796Y-88461376D01*
X189410184Y-88579591D01*
X189421427Y-88584247D01*
X189738666Y-88734289D01*
X189749398Y-88740026D01*
X190050380Y-88920428D01*
X190060497Y-88927188D01*
X190342366Y-89136235D01*
X190351753Y-89143938D01*
X190611789Y-89379621D01*
X190620379Y-89388211D01*
X190856062Y-89648247D01*
X190863765Y-89657634D01*
X191072812Y-89939503D01*
X191079572Y-89949620D01*
X191259974Y-90250602D01*
X191265711Y-90261334D01*
X191415753Y-90578573D01*
X191420409Y-90589816D01*
X191538624Y-90920204D01*
X191542157Y-90931848D01*
X191627426Y-91272258D01*
X191629800Y-91284194D01*
X191644039Y-91380189D01*
X191677064Y-91602822D01*
X191681289Y-91631308D01*
X191682481Y-91643411D01*
X191697653Y-91952219D01*
X191698309Y-91965566D01*
X191697256Y-91982321D01*
X191697256Y-91989316D01*
X191695372Y-92000000D01*
X191697256Y-92010685D01*
X191698116Y-92015562D01*
X191700000Y-92037094D01*
X191700000Y-119462906D01*
X191698116Y-119484438D01*
X191695372Y-119500000D01*
X191697256Y-119510684D01*
X191697256Y-119517679D01*
X191698309Y-119534432D01*
X191689727Y-119709122D01*
X191682482Y-119856583D01*
X191681290Y-119868686D01*
X191676829Y-119898758D01*
X191629800Y-120215806D01*
X191627426Y-120227742D01*
X191542157Y-120568152D01*
X191538624Y-120579796D01*
X191420409Y-120910184D01*
X191415753Y-120921427D01*
X191265711Y-121238666D01*
X191259974Y-121249398D01*
X191079572Y-121550380D01*
X191072812Y-121560497D01*
X190863765Y-121842366D01*
X190856062Y-121851753D01*
X190620379Y-122111789D01*
X190611789Y-122120379D01*
X190351753Y-122356062D01*
X190342366Y-122363765D01*
X190060497Y-122572812D01*
X190050380Y-122579572D01*
X189749398Y-122759974D01*
X189738666Y-122765711D01*
X189421427Y-122915753D01*
X189410184Y-122920409D01*
X189079796Y-123038624D01*
X189068152Y-123042157D01*
X188727742Y-123127426D01*
X188715806Y-123129800D01*
X188598962Y-123147132D01*
X188368686Y-123181290D01*
X188356589Y-123182481D01*
X188034432Y-123198309D01*
X188017679Y-123197256D01*
X188010684Y-123197256D01*
X188000000Y-123195372D01*
X187989315Y-123197256D01*
X187984438Y-123198116D01*
X187962906Y-123200000D01*
X152037094Y-123200000D01*
X152015562Y-123198116D01*
X152010685Y-123197256D01*
X152000000Y-123195372D01*
X151989316Y-123197256D01*
X151982321Y-123197256D01*
X151965568Y-123198309D01*
X151643411Y-123182481D01*
X151631314Y-123181290D01*
X151401038Y-123147132D01*
X151284194Y-123129800D01*
X151272258Y-123127426D01*
X150931848Y-123042157D01*
X150920204Y-123038624D01*
X150589816Y-122920409D01*
X150578573Y-122915753D01*
X150261334Y-122765711D01*
X150250602Y-122759974D01*
X149949620Y-122579572D01*
X149939503Y-122572812D01*
X149657634Y-122363765D01*
X149648247Y-122356062D01*
X149388211Y-122120379D01*
X149379621Y-122111789D01*
X149143938Y-121851753D01*
X149136235Y-121842366D01*
X148927188Y-121560497D01*
X148920428Y-121550380D01*
X148827084Y-121394646D01*
X162849500Y-121394646D01*
X162852618Y-121420846D01*
X162898061Y-121523153D01*
X162977287Y-121602241D01*
X162987758Y-121606870D01*
X162987759Y-121606871D01*
X163071147Y-121643737D01*
X163071149Y-121643738D01*
X163079673Y-121647506D01*
X163105354Y-121650500D01*
X164894646Y-121650500D01*
X164898300Y-121650065D01*
X164898302Y-121650065D01*
X164903266Y-121649474D01*
X164920846Y-121647382D01*
X165023153Y-121601939D01*
X165102241Y-121522713D01*
X165147506Y-121420327D01*
X165150500Y-121394646D01*
X165150500Y-120680300D01*
X165170185Y-120613261D01*
X165222989Y-120567506D01*
X165292147Y-120557562D01*
X165355703Y-120586587D01*
X165393477Y-120645365D01*
X165398234Y-120672190D01*
X165398423Y-120675072D01*
X165398425Y-120675082D01*
X165398796Y-120680749D01*
X165450845Y-120885690D01*
X165453219Y-120890841D01*
X165453221Y-120890845D01*
X165490908Y-120972594D01*
X165539369Y-121077714D01*
X165542647Y-121082352D01*
X165653119Y-121238666D01*
X165661405Y-121250391D01*
X165812865Y-121397937D01*
X165817588Y-121401093D01*
X165817592Y-121401096D01*
X165888663Y-121448584D01*
X165988677Y-121515411D01*
X166182953Y-121598878D01*
X166218277Y-121606871D01*
X166383638Y-121644289D01*
X166383642Y-121644290D01*
X166389186Y-121645544D01*
X166515315Y-121650500D01*
X166594789Y-121653623D01*
X166594791Y-121653623D01*
X166600470Y-121653846D01*
X166606090Y-121653031D01*
X166606092Y-121653031D01*
X166804103Y-121624320D01*
X166804104Y-121624320D01*
X166809730Y-121623504D01*
X166828588Y-121617103D01*
X167004565Y-121557367D01*
X167004568Y-121557366D01*
X167009955Y-121555537D01*
X167014916Y-121552759D01*
X167014922Y-121552756D01*
X167121530Y-121493052D01*
X167194442Y-121452219D01*
X167232165Y-121420846D01*
X167352645Y-121320644D01*
X167357012Y-121317012D01*
X167360644Y-121312645D01*
X167488584Y-121158813D01*
X167488585Y-121158811D01*
X167492219Y-121154442D01*
X167538078Y-121072556D01*
X167592756Y-120974922D01*
X167592759Y-120974916D01*
X167595537Y-120969955D01*
X167611232Y-120923721D01*
X167661675Y-120775118D01*
X167663504Y-120769730D01*
X167665726Y-120754404D01*
X167687820Y-120602033D01*
X167716921Y-120538512D01*
X167770225Y-120504346D01*
X167850974Y-120504346D01*
X167904347Y-120538736D01*
X167933296Y-120602327D01*
X167934271Y-120611707D01*
X167938796Y-120680749D01*
X167990845Y-120885690D01*
X167993219Y-120890841D01*
X167993221Y-120890845D01*
X168030908Y-120972594D01*
X168079369Y-121077714D01*
X168082647Y-121082352D01*
X168193119Y-121238666D01*
X168201405Y-121250391D01*
X168352865Y-121397937D01*
X168357588Y-121401093D01*
X168357592Y-121401096D01*
X168428663Y-121448584D01*
X168528677Y-121515411D01*
X168722953Y-121598878D01*
X168758277Y-121606871D01*
X168923638Y-121644289D01*
X168923642Y-121644290D01*
X168929186Y-121645544D01*
X169055315Y-121650500D01*
X169134789Y-121653623D01*
X169134791Y-121653623D01*
X169140470Y-121653846D01*
X169146090Y-121653031D01*
X169146092Y-121653031D01*
X169344103Y-121624320D01*
X169344104Y-121624320D01*
X169349730Y-121623504D01*
X169368588Y-121617103D01*
X169544565Y-121557367D01*
X169544568Y-121557366D01*
X169549955Y-121555537D01*
X169554916Y-121552759D01*
X169554922Y-121552756D01*
X169661530Y-121493052D01*
X169734442Y-121452219D01*
X169772165Y-121420846D01*
X169892645Y-121320644D01*
X169897012Y-121317012D01*
X169900644Y-121312645D01*
X170028584Y-121158813D01*
X170028585Y-121158811D01*
X170032219Y-121154442D01*
X170134059Y-120972594D01*
X170183990Y-120923721D01*
X170252418Y-120909601D01*
X170317617Y-120934717D01*
X170354630Y-120980778D01*
X170444110Y-121172667D01*
X170449508Y-121182017D01*
X170578784Y-121366643D01*
X170585719Y-121374907D01*
X170745091Y-121534279D01*
X170753357Y-121541215D01*
X170937992Y-121670498D01*
X170947324Y-121675886D01*
X171151603Y-121771143D01*
X171161736Y-121774832D01*
X171352779Y-121826022D01*
X171366653Y-121825691D01*
X171370000Y-121817875D01*
X171370000Y-121812806D01*
X171870000Y-121812806D01*
X171873910Y-121826123D01*
X171882326Y-121827333D01*
X172078264Y-121774832D01*
X172088397Y-121771143D01*
X172292676Y-121675886D01*
X172302008Y-121670498D01*
X172486643Y-121541215D01*
X172494909Y-121534279D01*
X172654281Y-121374907D01*
X172661216Y-121366643D01*
X172790492Y-121182017D01*
X172795890Y-121172667D01*
X172891143Y-120968397D01*
X172894832Y-120958264D01*
X172946022Y-120767221D01*
X172945691Y-120753347D01*
X172937875Y-120750000D01*
X171887830Y-120750000D01*
X171872831Y-120754404D01*
X171871644Y-120755774D01*
X171870000Y-120763332D01*
X171870000Y-121812806D01*
X171370000Y-121812806D01*
X171370000Y-120232170D01*
X171870000Y-120232170D01*
X171874404Y-120247169D01*
X171875774Y-120248356D01*
X171883332Y-120250000D01*
X172932806Y-120250000D01*
X172946123Y-120246090D01*
X172947333Y-120237674D01*
X172894832Y-120041736D01*
X172891143Y-120031603D01*
X172795890Y-119827333D01*
X172790492Y-119817983D01*
X172661216Y-119633357D01*
X172654281Y-119625093D01*
X172494909Y-119465721D01*
X172486643Y-119458785D01*
X172450945Y-119433789D01*
X186595996Y-119433789D01*
X186604913Y-119671295D01*
X186605990Y-119676430D01*
X186605991Y-119676435D01*
X186652639Y-119898758D01*
X186653719Y-119903904D01*
X186741020Y-120124963D01*
X186743741Y-120129447D01*
X186743743Y-120129451D01*
X186815897Y-120248356D01*
X186864319Y-120328153D01*
X186929386Y-120403136D01*
X187013440Y-120500000D01*
X187020090Y-120507664D01*
X187203880Y-120658362D01*
X187208441Y-120660958D01*
X187208442Y-120660959D01*
X187405875Y-120773345D01*
X187405880Y-120773347D01*
X187410433Y-120775939D01*
X187633844Y-120857034D01*
X187867725Y-120899326D01*
X187892619Y-120900500D01*
X188059680Y-120900500D01*
X188062296Y-120900278D01*
X188062297Y-120900278D01*
X188231590Y-120885913D01*
X188236823Y-120885469D01*
X188466874Y-120825760D01*
X188683576Y-120728143D01*
X188880732Y-120595409D01*
X189052705Y-120431355D01*
X189194579Y-120240670D01*
X189204156Y-120221834D01*
X189299913Y-120033493D01*
X189299915Y-120033488D01*
X189302295Y-120028807D01*
X189372775Y-119801824D01*
X189382710Y-119726867D01*
X189403315Y-119571412D01*
X189403315Y-119571408D01*
X189404004Y-119566211D01*
X189395819Y-119348207D01*
X189395284Y-119333949D01*
X189395284Y-119333948D01*
X189395087Y-119328705D01*
X189367700Y-119198176D01*
X189347361Y-119101242D01*
X189347360Y-119101239D01*
X189346281Y-119096096D01*
X189258980Y-118875037D01*
X189191607Y-118764009D01*
X189138408Y-118676341D01*
X189135681Y-118671847D01*
X188979910Y-118492336D01*
X188825255Y-118365527D01*
X188800179Y-118344966D01*
X188800178Y-118344965D01*
X188796120Y-118341638D01*
X188782939Y-118334135D01*
X188594125Y-118226655D01*
X188594120Y-118226653D01*
X188589567Y-118224061D01*
X188366156Y-118142966D01*
X188132275Y-118100674D01*
X188107381Y-118099500D01*
X187940320Y-118099500D01*
X187937704Y-118099722D01*
X187937703Y-118099722D01*
X187831307Y-118108750D01*
X187763177Y-118114531D01*
X187533126Y-118174240D01*
X187316424Y-118271857D01*
X187119268Y-118404591D01*
X186947295Y-118568645D01*
X186805421Y-118759330D01*
X186803042Y-118764008D01*
X186803042Y-118764009D01*
X186748875Y-118870549D01*
X186697705Y-118971193D01*
X186627225Y-119198176D01*
X186626534Y-119203386D01*
X186626534Y-119203388D01*
X186599658Y-119406163D01*
X186595996Y-119433789D01*
X172450945Y-119433789D01*
X172302008Y-119329502D01*
X172292676Y-119324114D01*
X172088397Y-119228857D01*
X172078264Y-119225168D01*
X171887221Y-119173978D01*
X171873347Y-119174309D01*
X171870000Y-119182125D01*
X171870000Y-120232170D01*
X171370000Y-120232170D01*
X171370000Y-119187194D01*
X171366090Y-119173877D01*
X171357674Y-119172667D01*
X171161736Y-119225168D01*
X171151603Y-119228857D01*
X170947333Y-119324110D01*
X170937983Y-119329508D01*
X170753357Y-119458784D01*
X170745093Y-119465719D01*
X170585719Y-119625093D01*
X170578784Y-119633357D01*
X170449508Y-119817983D01*
X170444110Y-119827333D01*
X170352664Y-120023438D01*
X170306491Y-120075877D01*
X170239298Y-120095029D01*
X170172417Y-120074813D01*
X170129071Y-120025878D01*
X170065165Y-119896290D01*
X169938651Y-119726867D01*
X169934481Y-119723012D01*
X169934478Y-119723009D01*
X169828552Y-119625093D01*
X169783381Y-119583337D01*
X169777574Y-119579673D01*
X169609363Y-119473539D01*
X169609361Y-119473538D01*
X169604554Y-119470505D01*
X169408160Y-119392152D01*
X169402579Y-119391042D01*
X169402576Y-119391041D01*
X169304468Y-119371527D01*
X169200775Y-119350901D01*
X169195088Y-119350827D01*
X169195083Y-119350826D01*
X168995034Y-119348207D01*
X168995029Y-119348207D01*
X168989346Y-119348133D01*
X168983742Y-119349096D01*
X168983741Y-119349096D01*
X168786550Y-119382979D01*
X168786547Y-119382980D01*
X168780953Y-119383941D01*
X168582575Y-119457127D01*
X168577697Y-119460029D01*
X168577695Y-119460030D01*
X168405740Y-119562332D01*
X168405737Y-119562334D01*
X168400856Y-119565238D01*
X168241881Y-119704655D01*
X168238362Y-119709119D01*
X168238359Y-119709122D01*
X168220782Y-119731419D01*
X168110976Y-119870708D01*
X168012523Y-120057836D01*
X168010837Y-120063267D01*
X168010835Y-120063271D01*
X167990286Y-120129451D01*
X167949820Y-120259773D01*
X167932851Y-120403140D01*
X167905425Y-120467398D01*
X167850974Y-120504346D01*
X167770225Y-120504346D01*
X167770667Y-120504063D01*
X167718057Y-120472081D01*
X167687453Y-120409271D01*
X167686232Y-120399909D01*
X167676601Y-120295100D01*
X167676081Y-120289440D01*
X167618686Y-120085931D01*
X167525165Y-119896290D01*
X167398651Y-119726867D01*
X167394481Y-119723012D01*
X167394478Y-119723009D01*
X167288552Y-119625093D01*
X167243381Y-119583337D01*
X167237574Y-119579673D01*
X167069363Y-119473539D01*
X167069361Y-119473538D01*
X167064554Y-119470505D01*
X166868160Y-119392152D01*
X166862579Y-119391042D01*
X166862576Y-119391041D01*
X166764468Y-119371527D01*
X166660775Y-119350901D01*
X166655088Y-119350827D01*
X166655083Y-119350826D01*
X166455034Y-119348207D01*
X166455029Y-119348207D01*
X166449346Y-119348133D01*
X166443742Y-119349096D01*
X166443741Y-119349096D01*
X166246550Y-119382979D01*
X166246547Y-119382980D01*
X166240953Y-119383941D01*
X166042575Y-119457127D01*
X166037697Y-119460029D01*
X166037695Y-119460030D01*
X165865740Y-119562332D01*
X165865737Y-119562334D01*
X165860856Y-119565238D01*
X165701881Y-119704655D01*
X165698362Y-119709119D01*
X165698359Y-119709122D01*
X165680782Y-119731419D01*
X165570976Y-119870708D01*
X165472523Y-120057836D01*
X165470837Y-120063267D01*
X165470835Y-120063271D01*
X165450286Y-120129451D01*
X165409820Y-120259773D01*
X165409152Y-120265418D01*
X165409151Y-120265422D01*
X165397640Y-120362681D01*
X165370213Y-120426942D01*
X165312397Y-120466173D01*
X165242549Y-120467919D01*
X165182845Y-120431625D01*
X165152241Y-120368814D01*
X165150500Y-120348106D01*
X165150500Y-119605354D01*
X165147382Y-119579154D01*
X165101939Y-119476847D01*
X165022713Y-119397759D01*
X165012242Y-119393130D01*
X165012241Y-119393129D01*
X164928853Y-119356263D01*
X164928851Y-119356262D01*
X164920327Y-119352494D01*
X164894646Y-119349500D01*
X163105354Y-119349500D01*
X163101700Y-119349935D01*
X163101698Y-119349935D01*
X163096734Y-119350526D01*
X163079154Y-119352618D01*
X162976847Y-119398061D01*
X162897759Y-119477287D01*
X162893130Y-119487758D01*
X162893129Y-119487759D01*
X162858446Y-119566211D01*
X162852494Y-119579673D01*
X162849500Y-119605354D01*
X162849500Y-121394646D01*
X148827084Y-121394646D01*
X148740026Y-121249398D01*
X148734289Y-121238666D01*
X148584247Y-120921427D01*
X148579591Y-120910184D01*
X148461376Y-120579796D01*
X148457843Y-120568152D01*
X148372574Y-120227742D01*
X148370200Y-120215806D01*
X148323171Y-119898758D01*
X148318710Y-119868686D01*
X148317518Y-119856583D01*
X148310274Y-119709122D01*
X148301691Y-119534432D01*
X148302744Y-119517679D01*
X148302744Y-119510684D01*
X148304628Y-119500000D01*
X148301884Y-119484438D01*
X148300000Y-119462906D01*
X148300000Y-119433789D01*
X150595996Y-119433789D01*
X150604913Y-119671295D01*
X150605990Y-119676430D01*
X150605991Y-119676435D01*
X150652639Y-119898758D01*
X150653719Y-119903904D01*
X150741020Y-120124963D01*
X150743741Y-120129447D01*
X150743743Y-120129451D01*
X150815897Y-120248356D01*
X150864319Y-120328153D01*
X150929386Y-120403136D01*
X151013440Y-120500000D01*
X151020090Y-120507664D01*
X151203880Y-120658362D01*
X151208441Y-120660958D01*
X151208442Y-120660959D01*
X151405875Y-120773345D01*
X151405880Y-120773347D01*
X151410433Y-120775939D01*
X151633844Y-120857034D01*
X151867725Y-120899326D01*
X151892619Y-120900500D01*
X152059680Y-120900500D01*
X152062296Y-120900278D01*
X152062297Y-120900278D01*
X152231590Y-120885913D01*
X152236823Y-120885469D01*
X152466874Y-120825760D01*
X152683576Y-120728143D01*
X152880732Y-120595409D01*
X153052705Y-120431355D01*
X153194579Y-120240670D01*
X153204156Y-120221834D01*
X153299913Y-120033493D01*
X153299915Y-120033488D01*
X153302295Y-120028807D01*
X153372775Y-119801824D01*
X153382710Y-119726867D01*
X153403315Y-119571412D01*
X153403315Y-119571408D01*
X153404004Y-119566211D01*
X153395819Y-119348207D01*
X153395284Y-119333949D01*
X153395284Y-119333948D01*
X153395087Y-119328705D01*
X153367700Y-119198176D01*
X153347361Y-119101242D01*
X153347360Y-119101239D01*
X153346281Y-119096096D01*
X153258980Y-118875037D01*
X153191607Y-118764009D01*
X153138408Y-118676341D01*
X153135681Y-118671847D01*
X152979910Y-118492336D01*
X152825255Y-118365527D01*
X152800179Y-118344966D01*
X152800178Y-118344965D01*
X152796120Y-118341638D01*
X152782939Y-118334135D01*
X152594125Y-118226655D01*
X152594120Y-118226653D01*
X152589567Y-118224061D01*
X152366156Y-118142966D01*
X152132275Y-118100674D01*
X152107381Y-118099500D01*
X151940320Y-118099500D01*
X151937704Y-118099722D01*
X151937703Y-118099722D01*
X151831307Y-118108750D01*
X151763177Y-118114531D01*
X151533126Y-118174240D01*
X151316424Y-118271857D01*
X151119268Y-118404591D01*
X150947295Y-118568645D01*
X150805421Y-118759330D01*
X150803042Y-118764008D01*
X150803042Y-118764009D01*
X150748875Y-118870549D01*
X150697705Y-118971193D01*
X150627225Y-119198176D01*
X150626534Y-119203386D01*
X150626534Y-119203388D01*
X150599658Y-119406163D01*
X150595996Y-119433789D01*
X148300000Y-119433789D01*
X148300000Y-117793138D01*
X163344758Y-117793138D01*
X163345578Y-117800566D01*
X163345578Y-117800568D01*
X163347474Y-117817744D01*
X163362035Y-117949633D01*
X163416143Y-118097490D01*
X163420314Y-118103697D01*
X163469167Y-118176397D01*
X163503958Y-118228172D01*
X163526183Y-118248395D01*
X163614878Y-118329102D01*
X163614882Y-118329105D01*
X163620410Y-118334135D01*
X163626980Y-118337702D01*
X163626981Y-118337703D01*
X163744775Y-118401660D01*
X163758776Y-118409262D01*
X163861031Y-118436088D01*
X163903841Y-118447319D01*
X163903843Y-118447319D01*
X163911069Y-118449215D01*
X163988127Y-118450425D01*
X164061025Y-118451571D01*
X164061028Y-118451571D01*
X164068495Y-118451688D01*
X164075776Y-118450020D01*
X164075780Y-118450020D01*
X164214677Y-118418208D01*
X164214678Y-118418208D01*
X164221968Y-118416538D01*
X164326981Y-118363722D01*
X164382697Y-118350500D01*
X167419058Y-118350500D01*
X167478226Y-118365527D01*
X167558776Y-118409262D01*
X167661031Y-118436088D01*
X167703841Y-118447319D01*
X167703843Y-118447319D01*
X167711069Y-118449215D01*
X167788127Y-118450425D01*
X167861025Y-118451571D01*
X167861028Y-118451571D01*
X167868495Y-118451688D01*
X167875776Y-118450020D01*
X167875780Y-118450020D01*
X168014677Y-118418208D01*
X168014678Y-118418208D01*
X168021968Y-118416538D01*
X168126981Y-118363722D01*
X168182697Y-118350500D01*
X169819058Y-118350500D01*
X169878226Y-118365527D01*
X169958776Y-118409262D01*
X170061031Y-118436088D01*
X170103841Y-118447319D01*
X170103843Y-118447319D01*
X170111069Y-118449215D01*
X170188127Y-118450425D01*
X170261025Y-118451571D01*
X170261028Y-118451571D01*
X170268495Y-118451688D01*
X170275776Y-118450020D01*
X170275780Y-118450020D01*
X170414681Y-118418207D01*
X170421968Y-118416538D01*
X170562625Y-118345795D01*
X170568306Y-118340943D01*
X170568309Y-118340941D01*
X170676666Y-118248395D01*
X170676667Y-118248394D01*
X170682348Y-118243542D01*
X170693393Y-118228172D01*
X170713798Y-118199775D01*
X170774224Y-118115683D01*
X170832950Y-117969598D01*
X170834793Y-117956649D01*
X170854562Y-117817744D01*
X170854562Y-117817740D01*
X170855134Y-117813723D01*
X170855278Y-117800000D01*
X170836363Y-117643694D01*
X170780710Y-117496412D01*
X170772337Y-117484229D01*
X170695768Y-117372821D01*
X170695765Y-117372818D01*
X170691531Y-117366657D01*
X170573976Y-117261919D01*
X170434831Y-117188245D01*
X170282128Y-117149889D01*
X170200329Y-117149461D01*
X170132158Y-117149104D01*
X170132157Y-117149104D01*
X170124684Y-117149065D01*
X170117421Y-117150809D01*
X170117418Y-117150809D01*
X170048136Y-117167443D01*
X169971588Y-117185820D01*
X169906418Y-117219457D01*
X169874968Y-117235689D01*
X169818096Y-117249500D01*
X168181324Y-117249500D01*
X168123301Y-117235087D01*
X168041443Y-117191745D01*
X168041437Y-117191743D01*
X168034831Y-117188245D01*
X167882128Y-117149889D01*
X167800329Y-117149461D01*
X167732158Y-117149104D01*
X167732157Y-117149104D01*
X167724684Y-117149065D01*
X167717421Y-117150809D01*
X167717418Y-117150809D01*
X167648136Y-117167443D01*
X167571588Y-117185820D01*
X167506418Y-117219457D01*
X167474968Y-117235689D01*
X167418096Y-117249500D01*
X164381324Y-117249500D01*
X164323301Y-117235087D01*
X164241443Y-117191745D01*
X164241437Y-117191743D01*
X164234831Y-117188245D01*
X164082128Y-117149889D01*
X164000329Y-117149461D01*
X163932158Y-117149104D01*
X163932157Y-117149104D01*
X163924684Y-117149065D01*
X163917421Y-117150809D01*
X163917418Y-117150809D01*
X163848136Y-117167443D01*
X163771588Y-117185820D01*
X163631679Y-117258032D01*
X163513034Y-117361533D01*
X163422501Y-117490348D01*
X163365309Y-117637039D01*
X163344758Y-117793138D01*
X148300000Y-117793138D01*
X148300000Y-108222806D01*
X184844563Y-108222806D01*
X184845112Y-108228839D01*
X184845112Y-108228843D01*
X184846665Y-108245904D01*
X184862790Y-108423089D01*
X184864501Y-108428902D01*
X184864501Y-108428903D01*
X184917859Y-108610198D01*
X184919572Y-108616018D01*
X185012746Y-108794243D01*
X185016571Y-108799000D01*
X185134137Y-108945222D01*
X185138763Y-108950976D01*
X185292823Y-109080248D01*
X185469058Y-109177134D01*
X185474840Y-109178968D01*
X185474842Y-109178969D01*
X185654976Y-109236111D01*
X185654978Y-109236111D01*
X185660755Y-109237944D01*
X185715287Y-109244061D01*
X185813815Y-109255113D01*
X185813821Y-109255113D01*
X185817268Y-109255500D01*
X186475606Y-109255500D01*
X186478621Y-109255204D01*
X186478629Y-109255204D01*
X186619115Y-109241429D01*
X186619117Y-109241429D01*
X186625151Y-109240837D01*
X186817679Y-109182710D01*
X186995249Y-109088294D01*
X187151099Y-108961186D01*
X187152214Y-108962553D01*
X187206324Y-108933245D01*
X187232269Y-108930500D01*
X188886386Y-108930500D01*
X188953425Y-108950185D01*
X188981096Y-108974462D01*
X189017678Y-109017751D01*
X189023012Y-109021829D01*
X189163456Y-109129207D01*
X189163459Y-109129209D01*
X189168793Y-109133287D01*
X189174882Y-109136126D01*
X189174883Y-109136127D01*
X189335109Y-109210841D01*
X189341193Y-109213678D01*
X189347738Y-109215141D01*
X189347741Y-109215142D01*
X189439890Y-109235740D01*
X189526834Y-109255174D01*
X189532665Y-109255500D01*
X190322517Y-109255500D01*
X190464109Y-109240118D01*
X190644396Y-109179445D01*
X190807447Y-109081474D01*
X190945658Y-108950775D01*
X190949432Y-108945222D01*
X191048804Y-108799000D01*
X191048806Y-108798997D01*
X191052578Y-108793446D01*
X191055070Y-108787216D01*
X191055072Y-108787212D01*
X191120727Y-108623062D01*
X191123221Y-108616827D01*
X191124318Y-108610202D01*
X191153192Y-108435788D01*
X191153192Y-108435786D01*
X191154289Y-108429160D01*
X191144333Y-108239199D01*
X191093819Y-108055807D01*
X191005102Y-107887540D01*
X190961947Y-107836472D01*
X190886655Y-107747376D01*
X190886653Y-107747374D01*
X190882322Y-107742249D01*
X190798976Y-107678526D01*
X190736544Y-107630793D01*
X190736541Y-107630791D01*
X190731207Y-107626713D01*
X190572095Y-107552518D01*
X190519656Y-107506347D01*
X190500500Y-107440137D01*
X190500500Y-101566974D01*
X190520185Y-101499935D01*
X190572989Y-101454180D01*
X190584949Y-101449451D01*
X190638025Y-101431589D01*
X190644396Y-101429445D01*
X190807447Y-101331474D01*
X190945658Y-101200775D01*
X190949432Y-101195222D01*
X191048804Y-101049000D01*
X191048806Y-101048997D01*
X191052578Y-101043446D01*
X191055070Y-101037216D01*
X191055072Y-101037212D01*
X191120727Y-100873062D01*
X191123221Y-100866827D01*
X191124318Y-100860202D01*
X191153192Y-100685788D01*
X191153192Y-100685786D01*
X191154289Y-100679160D01*
X191144333Y-100489199D01*
X191093819Y-100305807D01*
X191005102Y-100137540D01*
X190990134Y-100119827D01*
X190886655Y-99997376D01*
X190886653Y-99997374D01*
X190882322Y-99992249D01*
X190795087Y-99925553D01*
X190736544Y-99880793D01*
X190736541Y-99880791D01*
X190731207Y-99876713D01*
X190639643Y-99834016D01*
X190564891Y-99799159D01*
X190558807Y-99796322D01*
X190552262Y-99794859D01*
X190552259Y-99794858D01*
X190440522Y-99769882D01*
X190373166Y-99754826D01*
X190367335Y-99754500D01*
X189577483Y-99754500D01*
X189435891Y-99769882D01*
X189255604Y-99830555D01*
X189092553Y-99928526D01*
X189087676Y-99933138D01*
X188968754Y-100045596D01*
X188906520Y-100077355D01*
X188883556Y-100079500D01*
X187230771Y-100079500D01*
X187163732Y-100059815D01*
X187151065Y-100050489D01*
X187149069Y-100048814D01*
X187007177Y-99929752D01*
X186830942Y-99832866D01*
X186825160Y-99831032D01*
X186825158Y-99831031D01*
X186645024Y-99773889D01*
X186645022Y-99773889D01*
X186639245Y-99772056D01*
X186584713Y-99765939D01*
X186486185Y-99754887D01*
X186486179Y-99754887D01*
X186482732Y-99754500D01*
X185824394Y-99754500D01*
X185821379Y-99754796D01*
X185821371Y-99754796D01*
X185680885Y-99768571D01*
X185680883Y-99768571D01*
X185674849Y-99769163D01*
X185482321Y-99827290D01*
X185476970Y-99830135D01*
X185476968Y-99830136D01*
X185310109Y-99918857D01*
X185304751Y-99921706D01*
X185148901Y-100048814D01*
X185020708Y-100203773D01*
X185017822Y-100209110D01*
X185017821Y-100209112D01*
X184962039Y-100312280D01*
X184925055Y-100380680D01*
X184865585Y-100572797D01*
X184844563Y-100772806D01*
X184845112Y-100778839D01*
X184845112Y-100778843D01*
X184853119Y-100866827D01*
X184862790Y-100973089D01*
X184864501Y-100978902D01*
X184864501Y-100978903D01*
X184895324Y-101083630D01*
X184919572Y-101166018D01*
X185012746Y-101344243D01*
X185138763Y-101500976D01*
X185292823Y-101630248D01*
X185469058Y-101727134D01*
X185474840Y-101728968D01*
X185474842Y-101728969D01*
X185654976Y-101786111D01*
X185654978Y-101786111D01*
X185660755Y-101787944D01*
X185715287Y-101794061D01*
X185813815Y-101805113D01*
X185813821Y-101805113D01*
X185817268Y-101805500D01*
X186378291Y-101805500D01*
X186445330Y-101825185D01*
X186491085Y-101877989D01*
X186501230Y-101945685D01*
X186494394Y-101997611D01*
X186495214Y-102005039D01*
X186495214Y-102005041D01*
X186496841Y-102019778D01*
X186512999Y-102166135D01*
X186515565Y-102173147D01*
X186515566Y-102173151D01*
X186568697Y-102318336D01*
X186571266Y-102325356D01*
X186575433Y-102331558D01*
X186575435Y-102331561D01*
X186588510Y-102351018D01*
X186665830Y-102466083D01*
X186671360Y-102471115D01*
X186785702Y-102575159D01*
X186785706Y-102575162D01*
X186791233Y-102580191D01*
X186940235Y-102661092D01*
X187035585Y-102686107D01*
X187097005Y-102702220D01*
X187097007Y-102702220D01*
X187104233Y-102704116D01*
X187187178Y-102705419D01*
X187266290Y-102706662D01*
X187266293Y-102706662D01*
X187273760Y-102706779D01*
X187396209Y-102678735D01*
X187431738Y-102670598D01*
X187431739Y-102670598D01*
X187439029Y-102668928D01*
X187514111Y-102631166D01*
X187583820Y-102596106D01*
X187583822Y-102596105D01*
X187590498Y-102592747D01*
X187596180Y-102587894D01*
X187596183Y-102587892D01*
X187713741Y-102487487D01*
X187719423Y-102482634D01*
X187818361Y-102344947D01*
X187881601Y-102187634D01*
X187905490Y-102019778D01*
X187905645Y-102005000D01*
X187885276Y-101836680D01*
X187866168Y-101786111D01*
X187827989Y-101685073D01*
X187827987Y-101685070D01*
X187825345Y-101678077D01*
X187792473Y-101630248D01*
X187733549Y-101544513D01*
X187733546Y-101544510D01*
X187729312Y-101538349D01*
X187661433Y-101477871D01*
X187608303Y-101430533D01*
X187608301Y-101430532D01*
X187602721Y-101425560D01*
X187581052Y-101414087D01*
X187531016Y-101365321D01*
X187515287Y-101297245D01*
X187538861Y-101231472D01*
X187594251Y-101188885D01*
X187639075Y-101180500D01*
X188886386Y-101180500D01*
X188953425Y-101200185D01*
X188981096Y-101224462D01*
X189017678Y-101267751D01*
X189023012Y-101271829D01*
X189163456Y-101379207D01*
X189163459Y-101379209D01*
X189168793Y-101383287D01*
X189327905Y-101457482D01*
X189380344Y-101503653D01*
X189399500Y-101569863D01*
X189399500Y-107443026D01*
X189379815Y-107510065D01*
X189327011Y-107555820D01*
X189315051Y-107560549D01*
X189255604Y-107580555D01*
X189092553Y-107678526D01*
X189087676Y-107683138D01*
X188968754Y-107795596D01*
X188906520Y-107827355D01*
X188883556Y-107829500D01*
X187642287Y-107829500D01*
X187575248Y-107809815D01*
X187529493Y-107757011D01*
X187519549Y-107687853D01*
X187548574Y-107624297D01*
X187578236Y-107601210D01*
X187577593Y-107600243D01*
X187583821Y-107596105D01*
X187590498Y-107592747D01*
X187596180Y-107587894D01*
X187596183Y-107587892D01*
X187713741Y-107487487D01*
X187719423Y-107482634D01*
X187818361Y-107344947D01*
X187881601Y-107187634D01*
X187905490Y-107019778D01*
X187905645Y-107005000D01*
X187885276Y-106836680D01*
X187825345Y-106678077D01*
X187816657Y-106665436D01*
X187733549Y-106544513D01*
X187733546Y-106544510D01*
X187729312Y-106538349D01*
X187602721Y-106425560D01*
X187588347Y-106417949D01*
X187459489Y-106349723D01*
X187452881Y-106346224D01*
X187288441Y-106304919D01*
X187202248Y-106304468D01*
X187126368Y-106304070D01*
X187126367Y-106304070D01*
X187118895Y-106304031D01*
X187097235Y-106309231D01*
X186961295Y-106341868D01*
X186961293Y-106341869D01*
X186954032Y-106343612D01*
X186947399Y-106347035D01*
X186947395Y-106347037D01*
X186880465Y-106381583D01*
X186803369Y-106421375D01*
X186675604Y-106532831D01*
X186578113Y-106671547D01*
X186516524Y-106829513D01*
X186494394Y-106997611D01*
X186495214Y-107005039D01*
X186495214Y-107005041D01*
X186502043Y-107066893D01*
X186489834Y-107135687D01*
X186442370Y-107186960D01*
X186378792Y-107204500D01*
X185824394Y-107204500D01*
X185821379Y-107204796D01*
X185821371Y-107204796D01*
X185680885Y-107218571D01*
X185680883Y-107218571D01*
X185674849Y-107219163D01*
X185482321Y-107277290D01*
X185304751Y-107371706D01*
X185148901Y-107498814D01*
X185020708Y-107653773D01*
X185017822Y-107659110D01*
X185017821Y-107659112D01*
X184936337Y-107809815D01*
X184925055Y-107830680D01*
X184865585Y-108022797D01*
X184844563Y-108222806D01*
X148300000Y-108222806D01*
X148300000Y-105540862D01*
X149415497Y-105540862D01*
X149445134Y-105713340D01*
X149513654Y-105874373D01*
X149517921Y-105880171D01*
X149517922Y-105880173D01*
X149575092Y-105957857D01*
X149617383Y-106015324D01*
X149622874Y-106019989D01*
X149622875Y-106019990D01*
X149745261Y-106123965D01*
X149745264Y-106123967D01*
X149750755Y-106128632D01*
X149757172Y-106131909D01*
X149757174Y-106131910D01*
X149823616Y-106165837D01*
X149906616Y-106208219D01*
X149913612Y-106209931D01*
X149913615Y-106209932D01*
X149984763Y-106227341D01*
X150076606Y-106249815D01*
X150082114Y-106250157D01*
X150082116Y-106250157D01*
X150085744Y-106250382D01*
X150085748Y-106250382D01*
X150087648Y-106250500D01*
X150213822Y-106250500D01*
X150343828Y-106235343D01*
X150350595Y-106232887D01*
X150350598Y-106232886D01*
X150501557Y-106178090D01*
X150501558Y-106178089D01*
X150508331Y-106175631D01*
X150654685Y-106079677D01*
X150659637Y-106074449D01*
X150659640Y-106074447D01*
X150770087Y-105957857D01*
X150770089Y-105957855D01*
X150775040Y-105952628D01*
X150778656Y-105946403D01*
X150778658Y-105946400D01*
X150859322Y-105807525D01*
X150862939Y-105801298D01*
X150913667Y-105633807D01*
X150924503Y-105459138D01*
X150894866Y-105286660D01*
X150826346Y-105125627D01*
X150773340Y-105053600D01*
X150726888Y-104990479D01*
X150726886Y-104990477D01*
X150722617Y-104984676D01*
X150642216Y-104916370D01*
X150594739Y-104876035D01*
X150594736Y-104876033D01*
X150589245Y-104871368D01*
X150582828Y-104868091D01*
X150582826Y-104868090D01*
X150492388Y-104821910D01*
X150433384Y-104791781D01*
X150426388Y-104790069D01*
X150426385Y-104790068D01*
X150355237Y-104772659D01*
X150263394Y-104750185D01*
X150257886Y-104749843D01*
X150257884Y-104749843D01*
X150254256Y-104749618D01*
X150254252Y-104749618D01*
X150252352Y-104749500D01*
X150126178Y-104749500D01*
X149996172Y-104764657D01*
X149989405Y-104767113D01*
X149989402Y-104767114D01*
X149838443Y-104821910D01*
X149831669Y-104824369D01*
X149685315Y-104920323D01*
X149680363Y-104925551D01*
X149680360Y-104925553D01*
X149618855Y-104990479D01*
X149564960Y-105047372D01*
X149561344Y-105053597D01*
X149561342Y-105053600D01*
X149522875Y-105119827D01*
X149477061Y-105198702D01*
X149426333Y-105366193D01*
X149415497Y-105540862D01*
X148300000Y-105540862D01*
X148300000Y-100540862D01*
X149415497Y-100540862D01*
X149445134Y-100713340D01*
X149513654Y-100874373D01*
X149517921Y-100880171D01*
X149517922Y-100880173D01*
X149575092Y-100957857D01*
X149617383Y-101015324D01*
X149622874Y-101019989D01*
X149622875Y-101019990D01*
X149745261Y-101123965D01*
X149745264Y-101123967D01*
X149750755Y-101128632D01*
X149757172Y-101131909D01*
X149757174Y-101131910D01*
X149812573Y-101160198D01*
X149906616Y-101208219D01*
X149913612Y-101209931D01*
X149913615Y-101209932D01*
X149973000Y-101224463D01*
X150076606Y-101249815D01*
X150082114Y-101250157D01*
X150082116Y-101250157D01*
X150085744Y-101250382D01*
X150085748Y-101250382D01*
X150087648Y-101250500D01*
X150213822Y-101250500D01*
X150343828Y-101235343D01*
X150350595Y-101232887D01*
X150350598Y-101232886D01*
X150501557Y-101178090D01*
X150501558Y-101178089D01*
X150508331Y-101175631D01*
X150654685Y-101079677D01*
X150659637Y-101074449D01*
X150659640Y-101074447D01*
X150770087Y-100957857D01*
X150770089Y-100957855D01*
X150775040Y-100952628D01*
X150778656Y-100946403D01*
X150778658Y-100946400D01*
X150859322Y-100807525D01*
X150862939Y-100801298D01*
X150913667Y-100633807D01*
X150924503Y-100459138D01*
X150894866Y-100286660D01*
X150826346Y-100125627D01*
X150790822Y-100077355D01*
X150726888Y-99990479D01*
X150726886Y-99990477D01*
X150722617Y-99984676D01*
X150661953Y-99933138D01*
X150594739Y-99876035D01*
X150594736Y-99876033D01*
X150589245Y-99871368D01*
X150582828Y-99868091D01*
X150582826Y-99868090D01*
X150492388Y-99821910D01*
X150433384Y-99791781D01*
X150426388Y-99790069D01*
X150426385Y-99790068D01*
X150348111Y-99770915D01*
X150263394Y-99750185D01*
X150257886Y-99749843D01*
X150257884Y-99749843D01*
X150254256Y-99749618D01*
X150254252Y-99749618D01*
X150252352Y-99749500D01*
X150126178Y-99749500D01*
X149996172Y-99764657D01*
X149989405Y-99767113D01*
X149989402Y-99767114D01*
X149838443Y-99821910D01*
X149831669Y-99824369D01*
X149685315Y-99920323D01*
X149680363Y-99925551D01*
X149680360Y-99925553D01*
X149569913Y-100042143D01*
X149564960Y-100047372D01*
X149561344Y-100053597D01*
X149561342Y-100053600D01*
X149509136Y-100143480D01*
X149477061Y-100198702D01*
X149426333Y-100366193D01*
X149425434Y-100380680D01*
X149419104Y-100482726D01*
X149415497Y-100540862D01*
X148300000Y-100540862D01*
X148300000Y-92037094D01*
X148301884Y-92015562D01*
X148302744Y-92010685D01*
X148304628Y-92000000D01*
X148302744Y-91989316D01*
X148302744Y-91982321D01*
X148301691Y-91965566D01*
X148302347Y-91952219D01*
X148303252Y-91933789D01*
X150595996Y-91933789D01*
X150599066Y-92015562D01*
X150604250Y-92153623D01*
X150604913Y-92171295D01*
X150605990Y-92176430D01*
X150605991Y-92176435D01*
X150637399Y-92326123D01*
X150653719Y-92403904D01*
X150741020Y-92624963D01*
X150743741Y-92629447D01*
X150743743Y-92629451D01*
X150811233Y-92740670D01*
X150864319Y-92828153D01*
X151020090Y-93007664D01*
X151203880Y-93158362D01*
X151208441Y-93160958D01*
X151208442Y-93160959D01*
X151405875Y-93273345D01*
X151405880Y-93273347D01*
X151410433Y-93275939D01*
X151633844Y-93357034D01*
X151867725Y-93399326D01*
X151892619Y-93400500D01*
X152059680Y-93400500D01*
X152062296Y-93400278D01*
X152062297Y-93400278D01*
X152231590Y-93385913D01*
X152236823Y-93385469D01*
X152466874Y-93325760D01*
X152683576Y-93228143D01*
X152880732Y-93095409D01*
X153052705Y-92931355D01*
X153194579Y-92740670D01*
X153196958Y-92735991D01*
X153299913Y-92533493D01*
X153299915Y-92533488D01*
X153302295Y-92528807D01*
X153372775Y-92301824D01*
X153389395Y-92176435D01*
X153403315Y-92071412D01*
X153403315Y-92071408D01*
X153404004Y-92066211D01*
X153395087Y-91828705D01*
X153391718Y-91812645D01*
X153347361Y-91601242D01*
X153347360Y-91601239D01*
X153346281Y-91596096D01*
X153340854Y-91582352D01*
X153298938Y-91476216D01*
X153258980Y-91375037D01*
X153191664Y-91264103D01*
X153190586Y-91262326D01*
X158052667Y-91262326D01*
X158105168Y-91458264D01*
X158108857Y-91468397D01*
X158204110Y-91672667D01*
X158209508Y-91682017D01*
X158338784Y-91866643D01*
X158345719Y-91874907D01*
X158505091Y-92034279D01*
X158513357Y-92041215D01*
X158697992Y-92170498D01*
X158707324Y-92175886D01*
X158911603Y-92271143D01*
X158921736Y-92274832D01*
X159112779Y-92326022D01*
X159126653Y-92325691D01*
X159130000Y-92317875D01*
X159130000Y-92312806D01*
X159630000Y-92312806D01*
X159633910Y-92326123D01*
X159642326Y-92327333D01*
X159838264Y-92274832D01*
X159848397Y-92271143D01*
X160052676Y-92175886D01*
X160062008Y-92170498D01*
X160246643Y-92041215D01*
X160254909Y-92034279D01*
X160414281Y-91874907D01*
X160421216Y-91866643D01*
X160550492Y-91682017D01*
X160555890Y-91672667D01*
X160647656Y-91475876D01*
X160693829Y-91423437D01*
X160761022Y-91404285D01*
X160827903Y-91424501D01*
X160872648Y-91476368D01*
X160919369Y-91577714D01*
X160922647Y-91582352D01*
X161008187Y-91703388D01*
X161041405Y-91750391D01*
X161192865Y-91897937D01*
X161197588Y-91901093D01*
X161197592Y-91901096D01*
X161246521Y-91933789D01*
X161368677Y-92015411D01*
X161562953Y-92098878D01*
X161598277Y-92106871D01*
X161763638Y-92144289D01*
X161763642Y-92144290D01*
X161769186Y-92145544D01*
X161895315Y-92150500D01*
X161974789Y-92153623D01*
X161974791Y-92153623D01*
X161980470Y-92153846D01*
X161986090Y-92153031D01*
X161986092Y-92153031D01*
X162184103Y-92124320D01*
X162184104Y-92124320D01*
X162189730Y-92123504D01*
X162208588Y-92117103D01*
X162384565Y-92057367D01*
X162384568Y-92057366D01*
X162389955Y-92055537D01*
X162394916Y-92052759D01*
X162394922Y-92052756D01*
X162550609Y-91965566D01*
X162574442Y-91952219D01*
X162602856Y-91928588D01*
X162732645Y-91820644D01*
X162737012Y-91817012D01*
X162740644Y-91812645D01*
X162868584Y-91658813D01*
X162868585Y-91658811D01*
X162872219Y-91654442D01*
X162972031Y-91476216D01*
X162972756Y-91474922D01*
X162972759Y-91474916D01*
X162975537Y-91469955D01*
X163006009Y-91380189D01*
X163041675Y-91275118D01*
X163043504Y-91269730D01*
X163045954Y-91252831D01*
X163067820Y-91102033D01*
X163096921Y-91038512D01*
X163150225Y-91004346D01*
X163230974Y-91004346D01*
X163284347Y-91038736D01*
X163313296Y-91102327D01*
X163314271Y-91111707D01*
X163318796Y-91180749D01*
X163370845Y-91385690D01*
X163373219Y-91390841D01*
X163373221Y-91390845D01*
X163410262Y-91471193D01*
X163459369Y-91577714D01*
X163462647Y-91582352D01*
X163548187Y-91703388D01*
X163581405Y-91750391D01*
X163732865Y-91897937D01*
X163737588Y-91901093D01*
X163737592Y-91901096D01*
X163786521Y-91933789D01*
X163908677Y-92015411D01*
X164102953Y-92098878D01*
X164138277Y-92106871D01*
X164303638Y-92144289D01*
X164303642Y-92144290D01*
X164309186Y-92145544D01*
X164435315Y-92150500D01*
X164514789Y-92153623D01*
X164514791Y-92153623D01*
X164520470Y-92153846D01*
X164526090Y-92153031D01*
X164526092Y-92153031D01*
X164724103Y-92124320D01*
X164724104Y-92124320D01*
X164729730Y-92123504D01*
X164748588Y-92117103D01*
X164924565Y-92057367D01*
X164924568Y-92057366D01*
X164929955Y-92055537D01*
X164934916Y-92052759D01*
X164934922Y-92052756D01*
X165090609Y-91965566D01*
X165114442Y-91952219D01*
X165142856Y-91928588D01*
X165272645Y-91820644D01*
X165277012Y-91817012D01*
X165280644Y-91812645D01*
X165408584Y-91658813D01*
X165408585Y-91658811D01*
X165412219Y-91654442D01*
X165512031Y-91476216D01*
X165512756Y-91474922D01*
X165512759Y-91474916D01*
X165515537Y-91469955D01*
X165546009Y-91380189D01*
X165581675Y-91275118D01*
X165583504Y-91269730D01*
X165597045Y-91176341D01*
X165602783Y-91136769D01*
X165631884Y-91073248D01*
X165690707Y-91035543D01*
X165760577Y-91035627D01*
X165819310Y-91073471D01*
X165848259Y-91137061D01*
X165849500Y-91154562D01*
X165849500Y-91894646D01*
X165852618Y-91920846D01*
X165898061Y-92023153D01*
X165977287Y-92102241D01*
X165987758Y-92106870D01*
X165987759Y-92106871D01*
X166071147Y-92143737D01*
X166071149Y-92143738D01*
X166079673Y-92147506D01*
X166105354Y-92150500D01*
X167894646Y-92150500D01*
X167898300Y-92150065D01*
X167898302Y-92150065D01*
X167903266Y-92149474D01*
X167920846Y-92147382D01*
X168023153Y-92101939D01*
X168102241Y-92022713D01*
X168107559Y-92010685D01*
X168143737Y-91928853D01*
X168143738Y-91928851D01*
X168147506Y-91920327D01*
X168150500Y-91894646D01*
X168150500Y-91262326D01*
X169652667Y-91262326D01*
X169705168Y-91458264D01*
X169708857Y-91468397D01*
X169804110Y-91672667D01*
X169809508Y-91682017D01*
X169938784Y-91866643D01*
X169945719Y-91874907D01*
X170105091Y-92034279D01*
X170113357Y-92041215D01*
X170297992Y-92170498D01*
X170307324Y-92175886D01*
X170511603Y-92271143D01*
X170521736Y-92274832D01*
X170712779Y-92326022D01*
X170726653Y-92325691D01*
X170730000Y-92317875D01*
X170730000Y-92312806D01*
X171230000Y-92312806D01*
X171233910Y-92326123D01*
X171242326Y-92327333D01*
X171438264Y-92274832D01*
X171448397Y-92271143D01*
X171652676Y-92175886D01*
X171662008Y-92170498D01*
X171846643Y-92041215D01*
X171854909Y-92034279D01*
X172014281Y-91874907D01*
X172021216Y-91866643D01*
X172150492Y-91682017D01*
X172155890Y-91672667D01*
X172247656Y-91475876D01*
X172293829Y-91423437D01*
X172361022Y-91404285D01*
X172427903Y-91424501D01*
X172472648Y-91476368D01*
X172519369Y-91577714D01*
X172522647Y-91582352D01*
X172608187Y-91703388D01*
X172641405Y-91750391D01*
X172792865Y-91897937D01*
X172797588Y-91901093D01*
X172797592Y-91901096D01*
X172846521Y-91933789D01*
X172968677Y-92015411D01*
X173162953Y-92098878D01*
X173198277Y-92106871D01*
X173363638Y-92144289D01*
X173363642Y-92144290D01*
X173369186Y-92145544D01*
X173495315Y-92150500D01*
X173574789Y-92153623D01*
X173574791Y-92153623D01*
X173580470Y-92153846D01*
X173586090Y-92153031D01*
X173586092Y-92153031D01*
X173784103Y-92124320D01*
X173784104Y-92124320D01*
X173789730Y-92123504D01*
X173808588Y-92117103D01*
X173984565Y-92057367D01*
X173984568Y-92057366D01*
X173989955Y-92055537D01*
X173994916Y-92052759D01*
X173994922Y-92052756D01*
X174150609Y-91965566D01*
X174174442Y-91952219D01*
X174202856Y-91928588D01*
X174332645Y-91820644D01*
X174337012Y-91817012D01*
X174340644Y-91812645D01*
X174468584Y-91658813D01*
X174468585Y-91658811D01*
X174472219Y-91654442D01*
X174572031Y-91476216D01*
X174572756Y-91474922D01*
X174572759Y-91474916D01*
X174575537Y-91469955D01*
X174606009Y-91380189D01*
X174641675Y-91275118D01*
X174643504Y-91269730D01*
X174645954Y-91252831D01*
X174667820Y-91102033D01*
X174696921Y-91038512D01*
X174750225Y-91004346D01*
X174830974Y-91004346D01*
X174884347Y-91038736D01*
X174913296Y-91102327D01*
X174914271Y-91111707D01*
X174918796Y-91180749D01*
X174970845Y-91385690D01*
X174973219Y-91390841D01*
X174973221Y-91390845D01*
X175010262Y-91471193D01*
X175059369Y-91577714D01*
X175062647Y-91582352D01*
X175148187Y-91703388D01*
X175181405Y-91750391D01*
X175332865Y-91897937D01*
X175337588Y-91901093D01*
X175337592Y-91901096D01*
X175386521Y-91933789D01*
X175508677Y-92015411D01*
X175702953Y-92098878D01*
X175738277Y-92106871D01*
X175903638Y-92144289D01*
X175903642Y-92144290D01*
X175909186Y-92145544D01*
X176035315Y-92150500D01*
X176114789Y-92153623D01*
X176114791Y-92153623D01*
X176120470Y-92153846D01*
X176126090Y-92153031D01*
X176126092Y-92153031D01*
X176324103Y-92124320D01*
X176324104Y-92124320D01*
X176329730Y-92123504D01*
X176348588Y-92117103D01*
X176524565Y-92057367D01*
X176524568Y-92057366D01*
X176529955Y-92055537D01*
X176534916Y-92052759D01*
X176534922Y-92052756D01*
X176690609Y-91965566D01*
X176714442Y-91952219D01*
X176742856Y-91928588D01*
X176872645Y-91820644D01*
X176877012Y-91817012D01*
X176880644Y-91812645D01*
X177008584Y-91658813D01*
X177008585Y-91658811D01*
X177012219Y-91654442D01*
X177112031Y-91476216D01*
X177112756Y-91474922D01*
X177112759Y-91474916D01*
X177115537Y-91469955D01*
X177146009Y-91380189D01*
X177181675Y-91275118D01*
X177183504Y-91269730D01*
X177197045Y-91176341D01*
X177202783Y-91136769D01*
X177231884Y-91073248D01*
X177290707Y-91035543D01*
X177360577Y-91035627D01*
X177419310Y-91073471D01*
X177448259Y-91137061D01*
X177449500Y-91154562D01*
X177449500Y-91894646D01*
X177452618Y-91920846D01*
X177498061Y-92023153D01*
X177577287Y-92102241D01*
X177587758Y-92106870D01*
X177587759Y-92106871D01*
X177671147Y-92143737D01*
X177671149Y-92143738D01*
X177679673Y-92147506D01*
X177705354Y-92150500D01*
X179494646Y-92150500D01*
X179498300Y-92150065D01*
X179498302Y-92150065D01*
X179503266Y-92149474D01*
X179520846Y-92147382D01*
X179623153Y-92101939D01*
X179702241Y-92022713D01*
X179707559Y-92010685D01*
X179741555Y-91933789D01*
X186595996Y-91933789D01*
X186599066Y-92015562D01*
X186604250Y-92153623D01*
X186604913Y-92171295D01*
X186605990Y-92176430D01*
X186605991Y-92176435D01*
X186637399Y-92326123D01*
X186653719Y-92403904D01*
X186741020Y-92624963D01*
X186743741Y-92629447D01*
X186743743Y-92629451D01*
X186811233Y-92740670D01*
X186864319Y-92828153D01*
X187020090Y-93007664D01*
X187203880Y-93158362D01*
X187208441Y-93160958D01*
X187208442Y-93160959D01*
X187405875Y-93273345D01*
X187405880Y-93273347D01*
X187410433Y-93275939D01*
X187633844Y-93357034D01*
X187867725Y-93399326D01*
X187892619Y-93400500D01*
X188059680Y-93400500D01*
X188062296Y-93400278D01*
X188062297Y-93400278D01*
X188231590Y-93385913D01*
X188236823Y-93385469D01*
X188466874Y-93325760D01*
X188683576Y-93228143D01*
X188880732Y-93095409D01*
X189052705Y-92931355D01*
X189194579Y-92740670D01*
X189196958Y-92735991D01*
X189299913Y-92533493D01*
X189299915Y-92533488D01*
X189302295Y-92528807D01*
X189372775Y-92301824D01*
X189389395Y-92176435D01*
X189403315Y-92071412D01*
X189403315Y-92071408D01*
X189404004Y-92066211D01*
X189395087Y-91828705D01*
X189391718Y-91812645D01*
X189347361Y-91601242D01*
X189347360Y-91601239D01*
X189346281Y-91596096D01*
X189340854Y-91582352D01*
X189298938Y-91476216D01*
X189258980Y-91375037D01*
X189191664Y-91264103D01*
X189138408Y-91176341D01*
X189135681Y-91171847D01*
X188990086Y-91004063D01*
X188983356Y-90996307D01*
X188983355Y-90996306D01*
X188979910Y-90992336D01*
X188796120Y-90841638D01*
X188761607Y-90821992D01*
X188594125Y-90726655D01*
X188594120Y-90726653D01*
X188589567Y-90724061D01*
X188366156Y-90642966D01*
X188132275Y-90600674D01*
X188107381Y-90599500D01*
X187940320Y-90599500D01*
X187937704Y-90599722D01*
X187937703Y-90599722D01*
X187926484Y-90600674D01*
X187763177Y-90614531D01*
X187533126Y-90674240D01*
X187316424Y-90771857D01*
X187119268Y-90904591D01*
X186947295Y-91068645D01*
X186805421Y-91259330D01*
X186803042Y-91264008D01*
X186803042Y-91264009D01*
X186701075Y-91464565D01*
X186697705Y-91471193D01*
X186696146Y-91476213D01*
X186696145Y-91476216D01*
X186635146Y-91672667D01*
X186627225Y-91698176D01*
X186626534Y-91703386D01*
X186626534Y-91703388D01*
X186597712Y-91920846D01*
X186595996Y-91933789D01*
X179741555Y-91933789D01*
X179743737Y-91928853D01*
X179743738Y-91928851D01*
X179747506Y-91920327D01*
X179750500Y-91894646D01*
X179750500Y-90105354D01*
X179747382Y-90079154D01*
X179701939Y-89976847D01*
X179622713Y-89897759D01*
X179612242Y-89893130D01*
X179612241Y-89893129D01*
X179528853Y-89856263D01*
X179528851Y-89856262D01*
X179520327Y-89852494D01*
X179494646Y-89849500D01*
X177705354Y-89849500D01*
X177701700Y-89849935D01*
X177701698Y-89849935D01*
X177696734Y-89850526D01*
X177679154Y-89852618D01*
X177576847Y-89898061D01*
X177497759Y-89977287D01*
X177493130Y-89987758D01*
X177493129Y-89987759D01*
X177458876Y-90065238D01*
X177452494Y-90079673D01*
X177449500Y-90105354D01*
X177449500Y-90842727D01*
X177429815Y-90909766D01*
X177377011Y-90955521D01*
X177307853Y-90965465D01*
X177244297Y-90936440D01*
X177206523Y-90877662D01*
X177202020Y-90854073D01*
X177196601Y-90795101D01*
X177196601Y-90795100D01*
X177196081Y-90789440D01*
X177138686Y-90585931D01*
X177045165Y-90396290D01*
X176918651Y-90226867D01*
X176914481Y-90223012D01*
X176914478Y-90223009D01*
X176808552Y-90125093D01*
X176763381Y-90083337D01*
X176757574Y-90079673D01*
X176589363Y-89973539D01*
X176589361Y-89973538D01*
X176584554Y-89970505D01*
X176388160Y-89892152D01*
X176382579Y-89891042D01*
X176382576Y-89891041D01*
X176284467Y-89871526D01*
X176180775Y-89850901D01*
X176175088Y-89850827D01*
X176175083Y-89850826D01*
X175975034Y-89848207D01*
X175975029Y-89848207D01*
X175969346Y-89848133D01*
X175963742Y-89849096D01*
X175963741Y-89849096D01*
X175766550Y-89882979D01*
X175766547Y-89882980D01*
X175760953Y-89883941D01*
X175562575Y-89957127D01*
X175557697Y-89960029D01*
X175557695Y-89960030D01*
X175385740Y-90062332D01*
X175385737Y-90062334D01*
X175380856Y-90065238D01*
X175221881Y-90204655D01*
X175218362Y-90209119D01*
X175218359Y-90209122D01*
X175177199Y-90261334D01*
X175090976Y-90370708D01*
X174992523Y-90557836D01*
X174990837Y-90563267D01*
X174990835Y-90563271D01*
X174956379Y-90674240D01*
X174929820Y-90759773D01*
X174912851Y-90903140D01*
X174885425Y-90967398D01*
X174830974Y-91004346D01*
X174750225Y-91004346D01*
X174750667Y-91004063D01*
X174698057Y-90972081D01*
X174667453Y-90909271D01*
X174666232Y-90899909D01*
X174656601Y-90795100D01*
X174656081Y-90789440D01*
X174598686Y-90585931D01*
X174505165Y-90396290D01*
X174378651Y-90226867D01*
X174374481Y-90223012D01*
X174374478Y-90223009D01*
X174268552Y-90125093D01*
X174223381Y-90083337D01*
X174217574Y-90079673D01*
X174049363Y-89973539D01*
X174049361Y-89973538D01*
X174044554Y-89970505D01*
X173848160Y-89892152D01*
X173842579Y-89891042D01*
X173842576Y-89891041D01*
X173744467Y-89871526D01*
X173640775Y-89850901D01*
X173635088Y-89850827D01*
X173635083Y-89850826D01*
X173435034Y-89848207D01*
X173435029Y-89848207D01*
X173429346Y-89848133D01*
X173423742Y-89849096D01*
X173423741Y-89849096D01*
X173226550Y-89882979D01*
X173226547Y-89882980D01*
X173220953Y-89883941D01*
X173022575Y-89957127D01*
X173017697Y-89960029D01*
X173017695Y-89960030D01*
X172845740Y-90062332D01*
X172845737Y-90062334D01*
X172840856Y-90065238D01*
X172681881Y-90204655D01*
X172678362Y-90209119D01*
X172678359Y-90209122D01*
X172637199Y-90261334D01*
X172550976Y-90370708D01*
X172548325Y-90375747D01*
X172468685Y-90527117D01*
X172420050Y-90577281D01*
X172352015Y-90593187D01*
X172286181Y-90569786D01*
X172246565Y-90521786D01*
X172155890Y-90327333D01*
X172150492Y-90317983D01*
X172021216Y-90133357D01*
X172014281Y-90125093D01*
X171854909Y-89965721D01*
X171846643Y-89958785D01*
X171662008Y-89829502D01*
X171652676Y-89824114D01*
X171448397Y-89728857D01*
X171438264Y-89725168D01*
X171247221Y-89673978D01*
X171233347Y-89674309D01*
X171230000Y-89682125D01*
X171230000Y-92312806D01*
X170730000Y-92312806D01*
X170730000Y-91267830D01*
X170725596Y-91252831D01*
X170724226Y-91251644D01*
X170716668Y-91250000D01*
X169667194Y-91250000D01*
X169653877Y-91253910D01*
X169652667Y-91262326D01*
X168150500Y-91262326D01*
X168150500Y-90732779D01*
X169653978Y-90732779D01*
X169654309Y-90746653D01*
X169662125Y-90750000D01*
X170712170Y-90750000D01*
X170727169Y-90745596D01*
X170728356Y-90744226D01*
X170730000Y-90736668D01*
X170730000Y-89687194D01*
X170726090Y-89673877D01*
X170717674Y-89672667D01*
X170521736Y-89725168D01*
X170511603Y-89728857D01*
X170307333Y-89824110D01*
X170297983Y-89829508D01*
X170113357Y-89958784D01*
X170105093Y-89965719D01*
X169945719Y-90125093D01*
X169938784Y-90133357D01*
X169809508Y-90317983D01*
X169804110Y-90327333D01*
X169708857Y-90531603D01*
X169705168Y-90541736D01*
X169653978Y-90732779D01*
X168150500Y-90732779D01*
X168150500Y-90105354D01*
X168147382Y-90079154D01*
X168101939Y-89976847D01*
X168022713Y-89897759D01*
X168012242Y-89893130D01*
X168012241Y-89893129D01*
X167928853Y-89856263D01*
X167928851Y-89856262D01*
X167920327Y-89852494D01*
X167894646Y-89849500D01*
X166105354Y-89849500D01*
X166101700Y-89849935D01*
X166101698Y-89849935D01*
X166096734Y-89850526D01*
X166079154Y-89852618D01*
X165976847Y-89898061D01*
X165897759Y-89977287D01*
X165893130Y-89987758D01*
X165893129Y-89987759D01*
X165858876Y-90065238D01*
X165852494Y-90079673D01*
X165849500Y-90105354D01*
X165849500Y-90842727D01*
X165829815Y-90909766D01*
X165777011Y-90955521D01*
X165707853Y-90965465D01*
X165644297Y-90936440D01*
X165606523Y-90877662D01*
X165602020Y-90854073D01*
X165596601Y-90795101D01*
X165596601Y-90795100D01*
X165596081Y-90789440D01*
X165538686Y-90585931D01*
X165445165Y-90396290D01*
X165318651Y-90226867D01*
X165314481Y-90223012D01*
X165314478Y-90223009D01*
X165208552Y-90125093D01*
X165163381Y-90083337D01*
X165157574Y-90079673D01*
X164989363Y-89973539D01*
X164989361Y-89973538D01*
X164984554Y-89970505D01*
X164788160Y-89892152D01*
X164782579Y-89891042D01*
X164782576Y-89891041D01*
X164684467Y-89871526D01*
X164580775Y-89850901D01*
X164575088Y-89850827D01*
X164575083Y-89850826D01*
X164375034Y-89848207D01*
X164375029Y-89848207D01*
X164369346Y-89848133D01*
X164363742Y-89849096D01*
X164363741Y-89849096D01*
X164166550Y-89882979D01*
X164166547Y-89882980D01*
X164160953Y-89883941D01*
X163962575Y-89957127D01*
X163957697Y-89960029D01*
X163957695Y-89960030D01*
X163785740Y-90062332D01*
X163785737Y-90062334D01*
X163780856Y-90065238D01*
X163621881Y-90204655D01*
X163618362Y-90209119D01*
X163618359Y-90209122D01*
X163577199Y-90261334D01*
X163490976Y-90370708D01*
X163392523Y-90557836D01*
X163390837Y-90563267D01*
X163390835Y-90563271D01*
X163356379Y-90674240D01*
X163329820Y-90759773D01*
X163312851Y-90903140D01*
X163285425Y-90967398D01*
X163230974Y-91004346D01*
X163150225Y-91004346D01*
X163150667Y-91004063D01*
X163098057Y-90972081D01*
X163067453Y-90909271D01*
X163066232Y-90899909D01*
X163056601Y-90795100D01*
X163056081Y-90789440D01*
X162998686Y-90585931D01*
X162905165Y-90396290D01*
X162778651Y-90226867D01*
X162774481Y-90223012D01*
X162774478Y-90223009D01*
X162668552Y-90125093D01*
X162623381Y-90083337D01*
X162617574Y-90079673D01*
X162449363Y-89973539D01*
X162449361Y-89973538D01*
X162444554Y-89970505D01*
X162248160Y-89892152D01*
X162242579Y-89891042D01*
X162242576Y-89891041D01*
X162144467Y-89871526D01*
X162040775Y-89850901D01*
X162035088Y-89850827D01*
X162035083Y-89850826D01*
X161835034Y-89848207D01*
X161835029Y-89848207D01*
X161829346Y-89848133D01*
X161823742Y-89849096D01*
X161823741Y-89849096D01*
X161626550Y-89882979D01*
X161626547Y-89882980D01*
X161620953Y-89883941D01*
X161422575Y-89957127D01*
X161417697Y-89960029D01*
X161417695Y-89960030D01*
X161245740Y-90062332D01*
X161245737Y-90062334D01*
X161240856Y-90065238D01*
X161081881Y-90204655D01*
X161078362Y-90209119D01*
X161078359Y-90209122D01*
X161037199Y-90261334D01*
X160950976Y-90370708D01*
X160948325Y-90375747D01*
X160868685Y-90527117D01*
X160820050Y-90577281D01*
X160752015Y-90593187D01*
X160686181Y-90569786D01*
X160646565Y-90521786D01*
X160555890Y-90327333D01*
X160550492Y-90317983D01*
X160421216Y-90133357D01*
X160414281Y-90125093D01*
X160254909Y-89965721D01*
X160246643Y-89958785D01*
X160062008Y-89829502D01*
X160052676Y-89824114D01*
X159848397Y-89728857D01*
X159838264Y-89725168D01*
X159647221Y-89673978D01*
X159633347Y-89674309D01*
X159630000Y-89682125D01*
X159630000Y-92312806D01*
X159130000Y-92312806D01*
X159130000Y-91267830D01*
X159125596Y-91252831D01*
X159124226Y-91251644D01*
X159116668Y-91250000D01*
X158067194Y-91250000D01*
X158053877Y-91253910D01*
X158052667Y-91262326D01*
X153190586Y-91262326D01*
X153138408Y-91176341D01*
X153135681Y-91171847D01*
X152990086Y-91004063D01*
X152983356Y-90996307D01*
X152983355Y-90996306D01*
X152979910Y-90992336D01*
X152796120Y-90841638D01*
X152761607Y-90821992D01*
X152604883Y-90732779D01*
X158053978Y-90732779D01*
X158054309Y-90746653D01*
X158062125Y-90750000D01*
X159112170Y-90750000D01*
X159127169Y-90745596D01*
X159128356Y-90744226D01*
X159130000Y-90736668D01*
X159130000Y-89687194D01*
X159126090Y-89673877D01*
X159117674Y-89672667D01*
X158921736Y-89725168D01*
X158911603Y-89728857D01*
X158707333Y-89824110D01*
X158697983Y-89829508D01*
X158513357Y-89958784D01*
X158505093Y-89965719D01*
X158345719Y-90125093D01*
X158338784Y-90133357D01*
X158209508Y-90317983D01*
X158204110Y-90327333D01*
X158108857Y-90531603D01*
X158105168Y-90541736D01*
X158053978Y-90732779D01*
X152604883Y-90732779D01*
X152594125Y-90726655D01*
X152594120Y-90726653D01*
X152589567Y-90724061D01*
X152366156Y-90642966D01*
X152132275Y-90600674D01*
X152107381Y-90599500D01*
X151940320Y-90599500D01*
X151937704Y-90599722D01*
X151937703Y-90599722D01*
X151926484Y-90600674D01*
X151763177Y-90614531D01*
X151533126Y-90674240D01*
X151316424Y-90771857D01*
X151119268Y-90904591D01*
X150947295Y-91068645D01*
X150805421Y-91259330D01*
X150803042Y-91264008D01*
X150803042Y-91264009D01*
X150701075Y-91464565D01*
X150697705Y-91471193D01*
X150696146Y-91476213D01*
X150696145Y-91476216D01*
X150635146Y-91672667D01*
X150627225Y-91698176D01*
X150626534Y-91703386D01*
X150626534Y-91703388D01*
X150597712Y-91920846D01*
X150595996Y-91933789D01*
X148303252Y-91933789D01*
X148317519Y-91643411D01*
X148318711Y-91631308D01*
X148322937Y-91602822D01*
X148355961Y-91380189D01*
X148370200Y-91284194D01*
X148372574Y-91272258D01*
X148457843Y-90931848D01*
X148461376Y-90920204D01*
X148579591Y-90589816D01*
X148584247Y-90578573D01*
X148734289Y-90261334D01*
X148740026Y-90250602D01*
X148920428Y-89949620D01*
X148927188Y-89939503D01*
X149136235Y-89657634D01*
X149143938Y-89648247D01*
X149379621Y-89388211D01*
X149388211Y-89379621D01*
X149648247Y-89143938D01*
X149657634Y-89136235D01*
X149939503Y-88927188D01*
X149949620Y-88920428D01*
X150250602Y-88740026D01*
X150261334Y-88734289D01*
X150578573Y-88584247D01*
X150589816Y-88579591D01*
X150920204Y-88461376D01*
X150931848Y-88457843D01*
X151272258Y-88372574D01*
X151284194Y-88370200D01*
X151401038Y-88352868D01*
X151631314Y-88318710D01*
X151643411Y-88317519D01*
X151965568Y-88301691D01*
X151982321Y-88302744D01*
X151989316Y-88302744D01*
X152000000Y-88304628D01*
X152015562Y-88301884D01*
X152037094Y-88300000D01*
X187962906Y-88300000D01*
X187984438Y-88301884D01*
G37*
%TD.AperFunction*%
%TD*%
M02*
