M48
; DRILL file {KiCad (6.0.1)} date Tue Aug 30 01:47:00 2022
; FORMAT={-:-/ absolute / metric / decimal}
; #@! TF.CreationDate,2022-08-30T01:47:00+05:30
; #@! TF.GenerationSoftware,Kicad,Pcbnew,(6.0.1)
; #@! TF.FileFunction,MixedPlating,1,2
FMAT,2
METRIC
; #@! TA.AperFunction,Plated,PTH,ViaDrill
T1C0.300
; #@! TA.AperFunction,Plated,PTH,ComponentDrill
T2C0.550
; #@! TA.AperFunction,Plated,PTH,ComponentDrill
T3C0.850
; #@! TA.AperFunction,Plated,PTH,ComponentDrill
T4C1.000
; #@! TA.AperFunction,NonPlated,NPTH,ComponentDrill
T5C0.800
; #@! TA.AperFunction,NonPlated,NPTH,ComponentDrill
T6C0.900
; #@! TA.AperFunction,NonPlated,NPTH,ComponentDrill
T7C2.200
%
G90
G05
T1
X152.2Y-103.2
X156.6Y-108.0
X158.4Y-102.2
X160.6Y-113.4
X160.961Y-105.113
X161.0Y-107.0
X162.0Y-100.0
X164.0Y-117.8
X165.589Y-106.969
X166.5Y-103.5
X167.8Y-117.8
X168.5Y-112.5
X170.2Y-117.8
X170.5Y-108.0
X177.2Y-104.0
X179.8Y-114.0
X180.4Y-109.4
X180.4Y-110.6
X180.6Y-114.0
X184.0Y-102.8
X184.4Y-113.6
X186.8Y-110.4
T4
X159.38Y-91.0
X161.92Y-91.0
X164.0Y-120.5
X164.46Y-91.0
X166.54Y-120.5
X167.0Y-91.0
X169.08Y-120.5
X170.98Y-91.0
X171.62Y-120.5
X173.52Y-91.0
X176.06Y-91.0
X178.6Y-91.0
T5
X187.2Y-102.005
X187.2Y-107.005
T6
X150.17Y-100.5
X150.17Y-105.5
T7
X152.0Y-92.0
X152.0Y-119.5
X188.0Y-92.0
X188.0Y-119.5
T2
G00X189.625Y-100.63
M15
G01X190.275Y-100.63
M16
G05
G00X189.625Y-108.38
M15
G01X190.275Y-108.38
M16
G05
T3
G00X185.875Y-100.78
M15
G01X186.425Y-100.78
M16
G05
G00X185.875Y-108.23
M15
G01X186.425Y-108.23
M16
G05
T0
M30
